<?xml version="1.0" encoding="windows-1252"?>
<!-- Generator: Adobe Illustrator 26.5.0, SVG Export Plug-In . SVG Version: 6.00 Build 0)  -->
<svg version="1.2" baseProfile="tiny" id="Logo" xmlns="http://www.w3.org/2000/svg" xmlns:xlink="http://www.w3.org/1999/xlink" x="0px" y="0px" width="224px" height="56px" viewBox="0 0 157.7093353 40.1938171" overflow="visible" xml:space="preserve">
<g>
	<rect x="29.2093372" y="1.6440001" fill="none" width="128.5" height="38.5"/>
	<path stroke-width="0.25" stroke="black" d="M30.8670597,6.9091506c0.3344727,0,0.6147461-0.0874023,0.8398438-0.2626953   c0.2197266-0.1748047,0.3325176-0.4448242,0.3374004-0.8100586c-0.0048828-0.2548828-0.1298809-0.4697266-0.3749981-0.6450195   c-0.1098633-0.0898438-0.2373047-0.1748047-0.3823242-0.2548828s-0.2924805-0.1601562-0.4428711-0.2397461   c-0.1499023-0.0849609-0.2949219-0.175293-0.4345703-0.2700195c-0.1455078-0.090332-0.2753906-0.1899414-0.3901367-0.300293   c-0.2451172-0.214844-0.3701172-0.4873049-0.375-0.8173831c0.0048828-0.4248047,0.1674805-0.7597656,0.4873047-1.0048828   c0.3100586-0.2353516,0.7001953-0.3549803,1.1699219-0.3603514c0.1352539,0,0.2954102,0.0102539,0.4799805,0.0302734   c0.1850586,0.029785,0.3676739,0.0776366,0.5478497,0.142578l-0.0825195,0.472168   c-0.2548809-0.1298828-0.572752-0.1948242-0.9526348-0.1948242c-0.1347656,0-0.2675781,0.0126953-0.3974609,0.0375977   c-0.1298828,0.0297852-0.2524414,0.0825195-0.3676758,0.1572266c-0.1049805,0.0654297-0.1923828,0.1552734-0.262207,0.2700195   c-0.0703125,0.1201172-0.1049805,0.2651367-0.1049805,0.4350586c0,0.125,0.034668,0.2402344,0.1049805,0.3452148   c0.0698242,0.1049805,0.159668,0.1972656,0.2700195,0.2773438c0.1147461,0.0849612,0.2446289,0.1650393,0.3896484,0.2402346   c0.1401367,0.0800781,0.2851562,0.1621094,0.4350586,0.2470703c0.3149414,0.1503906,0.5898438,0.340332,0.8251934,0.5703125   c0.1147461,0.1098633,0.2075195,0.2397461,0.2773438,0.3901367c0.0649414,0.1499023,0.0976562,0.3222656,0.0976562,0.5170898   c-0.0102539,0.5205078-0.1923828,0.8979492-0.5473633,1.1328125c-0.3500957,0.2299805-0.7402325,0.3447266-1.1704082,0.3447266   c-0.5097656-0.0097656-0.9047852-0.0849609-1.1845703-0.2246094l0.0522461-0.5327148   C30.0067081,6.8066115,30.3919621,6.9091506,30.8670597,6.9091506z"/>
	<path stroke-width="0.25" stroke="black" fill="#000000" d="M36.6268234,3.9540722c-0.2700195-0.125-0.5424805-0.1899414-0.8173828-0.1948242   c-0.4604492,0.0048828-0.8125,0.1523438-1.0576172,0.4423831c-0.2548828,0.2949219-0.3823242,0.6796875-0.3823242,1.1547852   c0,0.4453125,0.1245117,0.8173828,0.375,1.1176758c0.2446289,0.3149414,0.5820312,0.4750977,1.012207,0.4799805   c0.2949219,0,0.5825195-0.0576172,0.862793-0.1723633l0.0449219,0.4423828   c-0.3100586,0.0947266-0.6376953,0.1396484-0.9824219,0.1347656c-0.6152344-0.0097656-1.0727539-0.2124023-1.3725586-0.6074219   c-0.3051758-0.3847656-0.4575195-0.8500977-0.4575195-1.3950195c0.0048828-0.6049805,0.1796875-1.0874023,0.5249023-1.4472659   c0.3398438-0.3652344,0.7949219-0.550293,1.3647461-0.5551758c0.2353516,0,0.4301758,0.0175781,0.5854492,0.0527344   c0.0795898,0.0146484,0.1499023,0.0297852,0.2099609,0.0449219c0.0546875,0.0200195,0.097168,0.0375977,0.1274414,0.0522461   L36.6268234,3.9540722z"/>
	<path stroke-width="0.25" stroke="black" fill="#000000" d="M38.0516281,1.6440138h0.4726562v2.4448242h0.0151367c0.1049805-0.214844,0.2597656-0.3920901,0.4648438-0.5322268   c0.2050781-0.1298828,0.4472656-0.1977539,0.7275391-0.2026367c0.5102539,0.0048828,0.8574219,0.1552734,1.0424805,0.4501953   c0.1801758,0.2998049,0.2675781,0.6923831,0.2626953,1.1772463v2.2875977h-0.4726562V4.9892287   c0-0.1699219-0.0102539-0.3300781-0.0297852-0.4799805c-0.0200195-0.1450195-0.0629883-0.2724609-0.1279297-0.3828125   c-0.1196289-0.2397463-0.3696289-0.3623049-0.75-0.3671877c-0.409668,0.0097656-0.7021484,0.1674805-0.8774414,0.4721682   c-0.1748047,0.3051758-0.2597656,0.6352539-0.2548828,0.9902344v2.0473633h-0.4726562V1.6440138z"/>
	<path stroke-width="0.25" stroke="black" fill="#000000" d="M46.7366867,7.2690139h-0.5698242L45.124382,3.9613965h-0.0151367l-1.0424805,3.3076174h-0.5698242l-1.2299805-3.8251956   H42.78405l1.0053711,3.3076174h0.0146484l1.0649414-3.3076174h0.5703125l1.012207,3.3076174h0.0151367l1.0576172-3.3076174   h0.4726562L46.7366867,7.2690139z"/>
	<path stroke-width="0.25" stroke="black" d="M51.7918625,7.1488967c-0.3603516,0.1352539-0.7304688,0.2050781-1.1103516,0.2099609   c-0.625-0.0097656-1.0722656-0.2021484-1.3422852-0.5771484c-0.2700195-0.3652344-0.402832-0.840332-0.3974609-1.425293   c0.0048828-0.5947266,0.1547852-1.0771484,0.449707-1.4472659c0.2851562-0.3652344,0.6723633-0.550293,1.1625977-0.5551758   c0.5351562,0.0102539,0.9248047,0.1977539,1.1699219,0.5625c0.2353516,0.3598635,0.3525391,0.805176,0.3525391,1.3349612v0.2402344   H49.459343c0,0.4150391,0.1074219,0.7573242,0.3222656,1.0273438c0.2099609,0.2851562,0.5224609,0.4301758,0.9375,0.4350586   c0.1850586,0,0.3798828-0.0327148,0.5849609-0.0976562c0.2050781-0.0546875,0.3676758-0.1171875,0.487793-0.1875V7.1488967z    M51.5589523,5.0863967c0-0.3496094-0.0722656-0.6547852-0.2172852-0.9150391   c-0.1552734-0.2646487-0.4077148-0.402344-0.7573242-0.4121096c-0.3452148,0.0097656-0.6176758,0.1499023-0.8178711,0.4199221   c-0.2050781,0.2700195-0.3071289,0.5722656-0.3071289,0.9072266H51.5589523z"/>
	<path stroke-width="0.25" stroke="black" d="M54.03405,2.4237988h-0.4726562V1.7939161H54.03405V2.4237988z M53.5613937,3.4438183H54.03405v3.8251956h-0.4726562   V3.4438183z"/>
	<path stroke-width="0.25" stroke="black" d="M55.459343,6.8715529l2.3022461-3.0224612h-2.2124023V3.4438183h2.7597656v0.4052734l-2.3022461,3.015137h2.3022461   v0.4047852H55.459343V6.8715529z"/>
	<path stroke-width="0.25" stroke="black" d="M62.2923508,7.1488967c-0.3603516,0.1352539-0.7304688,0.2050781-1.1103516,0.2099609   c-0.625-0.0097656-1.0722656-0.2021484-1.3422852-0.5771484c-0.2700195-0.3652344-0.402832-0.840332-0.3974609-1.425293   c0.0048828-0.5947266,0.1547852-1.0771484,0.449707-1.4472659c0.2851562-0.3652344,0.6723633-0.550293,1.1625977-0.5551758   c0.5351562,0.0102539,0.9248047,0.1977539,1.1699219,0.5625c0.2353516,0.3598635,0.3525391,0.805176,0.3525391,1.3349612v0.2402344   h-2.6171875c0,0.4150391,0.1074219,0.7573242,0.3222656,1.0273438c0.2099609,0.2851562,0.5224609,0.4301758,0.9375,0.4350586   c0.1850586,0,0.3798828-0.0327148,0.5849609-0.0976562c0.2050781-0.0546875,0.3676758-0.1171875,0.487793-0.1875V7.1488967z    M62.0594406,5.0863967c0-0.3496094-0.0722656-0.6547852-0.2172852-0.9150391   c-0.1552734-0.2646487-0.4077148-0.402344-0.7573242-0.4121096c-0.3452148,0.0097656-0.6176758,0.1499023-0.8178711,0.4199221   c-0.2050781,0.2700195-0.3071289,0.5722656-0.3071289,0.9072266H62.0594406z"/>
	<path stroke-width="0.25" stroke="black" d="M64.061882,4.298799c0-0.3549807-0.0097656-0.6396487-0.0297852-0.8549807h0.4726562v0.7353518h0.0146484   c0.090332-0.2250979,0.2177734-0.4174807,0.3828125-0.577637c0.159668-0.1601562,0.3598633-0.2426758,0.6000977-0.2475586   c0.1245117,0.0048828,0.2348633,0.0200195,0.3295898,0.0449219v0.4951172   c-0.1049805-0.0297852-0.2197266-0.0449219-0.3447266-0.0449219c-0.1850586,0.0048828-0.3374023,0.0498047-0.4575195,0.1347656   c-0.1201172,0.0903323-0.2177734,0.2128909-0.2924805,0.367676c-0.0703125,0.1499023-0.1201172,0.3125-0.1499023,0.4873047   c-0.0351562,0.1850586-0.0527344,0.3652344-0.0527344,0.5400391v1.8901367H64.061882V4.298799z"/>
	<path stroke-width="0.25" stroke="black" d="M67.6170578,2.4237988h-0.4726562V1.7939161h0.4726562V2.4237988z M67.1444016,3.4438183h0.4726562v3.8251956h-0.4726562   V3.4438183z"/>
	<path stroke-width="0.25" stroke="black" d="M70.0994797,6.9540725c0.2348633,0,0.4350586-0.0625,0.6000977-0.1875   c0.1601562-0.1152344,0.2426758-0.2797852,0.2475586-0.4951172c-0.0048828-0.2250977-0.0976562-0.4023438-0.2773438-0.5322266   c-0.1801758-0.125-0.3925781-0.237793-0.6376953-0.3378906c-0.1152344-0.0546875-0.2250977-0.1123047-0.3300781-0.1723633   s-0.2050781-0.1274414-0.2998047-0.2026367c-0.0849609-0.0795898-0.1552734-0.1723633-0.2099609-0.2773438   c-0.0551758-0.1000977-0.0825195-0.2172852-0.0825195-0.3525391c0.0048828-0.3798828,0.1347656-0.6499026,0.3896484-0.8100588   c0.2451172-0.1547852,0.5302734-0.2324219,0.8554688-0.2324219c0.1098633,0,0.2519531,0.0102539,0.4272461,0.0302734   c0.1748047,0.0297852,0.3476562,0.0771484,0.5175781,0.1420898l-0.0449219,0.4125977   c-0.2753906-0.1147461-0.5576172-0.1748047-0.8476562-0.1796875c-0.2451172,0-0.4399414,0.0449219-0.5849609,0.1347656   c-0.0751953,0.0449219-0.1323242,0.1074221-0.1723633,0.1875002c-0.0449219,0.0800781-0.0678711,0.1850586-0.0678711,0.3149414   c0,0.0800781,0.027832,0.1552734,0.0825195,0.2250977c0.0551758,0.0649414,0.1279297,0.125,0.2177734,0.1801758   c0.0898438,0.0498047,0.1923828,0.1025391,0.3076172,0.1572266c0.1147461,0.050293,0.2270508,0.1049805,0.3374023,0.1650391   c0.25,0.1049805,0.4672852,0.2451172,0.6523438,0.4199219c0.1850586,0.175293,0.2797852,0.4174805,0.2851562,0.7275391   c0,0.2001953-0.0400391,0.3676758-0.1201172,0.5024414c-0.0849609,0.1401367-0.1923828,0.2524414-0.3222656,0.3374023   c-0.2802734,0.1650391-0.5776367,0.2475586-0.8925781,0.2475586c-0.3701172,0-0.7275391-0.0600586-1.0727539-0.1796875   l0.0449219-0.465332C69.3919601,6.8691115,69.7244797,6.9491897,70.0994797,6.9540725z"/>
	<path stroke-width="0.25" stroke="black" d="M75.3870773,3.9540722c-0.2700195-0.125-0.5424805-0.1899414-0.8173828-0.1948242   c-0.4604492,0.0048828-0.8125,0.1523438-1.0576172,0.4423831c-0.2548828,0.2949219-0.3823242,0.6796875-0.3823242,1.1547852   c0,0.4453125,0.1245117,0.8173828,0.375,1.1176758c0.2446289,0.3149414,0.5820312,0.4750977,1.012207,0.4799805   c0.2949219,0,0.5825195-0.0576172,0.862793-0.1723633L75.424675,7.224092   c-0.3100586,0.0947266-0.6376953,0.1396484-0.9824219,0.1347656c-0.6152344-0.0097656-1.0727539-0.2124023-1.3725586-0.6074219   c-0.3051758-0.3847656-0.4575195-0.8500977-0.4575195-1.3950195c0.0048828-0.6049805,0.1796875-1.0874023,0.5249023-1.4472659   c0.3398438-0.3652344,0.7949219-0.550293,1.3647461-0.5551758c0.2353516,0,0.4301758,0.0175781,0.5854492,0.0527344   c0.0795898,0.0146484,0.1499023,0.0297852,0.2099609,0.0449219c0.0546875,0.0200195,0.097168,0.0375977,0.1274414,0.0522461   L75.3870773,3.9540722z"/>
	<path stroke-width="0.25" stroke="black" d="M76.811882,1.6440138h0.4726562v2.4448242h0.0151367c0.1049805-0.214844,0.2597656-0.3920901,0.4648438-0.5322268   c0.2050781-0.1298828,0.4472656-0.1977539,0.7275391-0.2026367c0.5102539,0.0048828,0.8574219,0.1552734,1.0424805,0.4501953   c0.1801758,0.2998049,0.2675781,0.6923831,0.2626953,1.1772463v2.2875977h-0.4726562V4.9892287   c0-0.1699219-0.0102539-0.3300781-0.0297852-0.4799805c-0.0200195-0.1450195-0.0629883-0.2724609-0.1279297-0.3828125   c-0.1196289-0.2397463-0.3696289-0.3623049-0.75-0.3671877c-0.409668,0.0097656-0.7021484,0.1674805-0.8774414,0.4721682   c-0.1748047,0.3051758-0.2597656,0.6352539-0.2548828,0.9902344v2.0473633H76.811882V1.6440138z"/>
	<path stroke-width="0.25" stroke="black" d="M84.1321945,7.1488967c-0.3603516,0.1352539-0.7304688,0.2050781-1.1103516,0.2099609   c-0.625-0.0097656-1.0722656-0.2021484-1.3422852-0.5771484c-0.2700195-0.3652344-0.402832-0.840332-0.3974609-1.425293   c0.0048828-0.5947266,0.1547852-1.0771484,0.449707-1.4472659c0.2851562-0.3652344,0.6723633-0.550293,1.1625977-0.5551758   c0.5351562,0.0102539,0.9248047,0.1977539,1.1699219,0.5625c0.2353516,0.3598635,0.3525391,0.805176,0.3525391,1.3349612v0.2402344   H81.799675c0,0.4150391,0.1074219,0.7573242,0.3222656,1.0273438c0.2099609,0.2851562,0.5224609,0.4301758,0.9375,0.4350586   c0.1850586,0,0.3798828-0.0327148,0.5849609-0.0976562c0.2050781-0.0546875,0.3676758-0.1171875,0.487793-0.1875V7.1488967z    M83.8992844,5.0863967c0-0.3496094-0.0722656-0.6547852-0.2172852-0.9150391   c-0.1552734-0.2646487-0.4077148-0.402344-0.7573242-0.4121096c-0.3452148,0.0097656-0.6176758,0.1499023-0.8178711,0.4199221   c-0.2050781,0.2700195-0.3071289,0.5722656-0.3071289,0.9072266H83.8992844z"/>
	<path stroke-width="0.25" stroke="black" d="M88.624382,2.0341504h2.5649414v0.449707h-2.0473633v1.867676h1.9423828v0.4501953h-1.9423828v2.0170898h2.137207   v0.4501953H88.624382V2.0341504z"/>
	<path stroke-width="0.25" stroke="black" d="M93.3792648,2.4237988h-0.4726562V1.7939161h0.4726562V2.4237988z M92.9066086,3.4438183h0.4726562v3.8251956h-0.4726562   V3.4438183z"/>
	<path stroke-width="0.25" stroke="black" d="M98.186882,7.2690139h-0.4726562V6.661592h-0.0151367c-0.25,0.4697266-0.6474609,0.7021484-1.1923828,0.6972656   c-0.5249023-0.0097656-0.9174805-0.2021484-1.1772461-0.5771484c-0.2651367-0.375-0.3974609-0.8500977-0.3974609-1.425293   c-0.0053711-0.5947266,0.1171875-1.074707,0.3671875-1.4399416c0.25-0.3701172,0.652832-0.5576172,1.2075195-0.5625   c0.1899414,0,0.3549805,0.0273438,0.4951172,0.0825195c0.1450195,0.0551758,0.2651367,0.125,0.3598633,0.2099609   c0.1953125,0.175293,0.3076172,0.3227539,0.3374023,0.4423831h0.0151367V1.6440138h0.4726562V7.2690139z M95.5018234,5.9037795   c0.0400391,0.1904297,0.1000977,0.3652344,0.1801758,0.5253906c0.0898438,0.1499023,0.2070312,0.2724609,0.3525391,0.3671875   c0.1396484,0.1049805,0.3222656,0.1577148,0.5473633,0.1577148c0.2099609,0,0.3901367-0.0527344,0.5400391-0.1577148   c0.1396484-0.0947266,0.2548828-0.222168,0.3447266-0.3823242c0.1699219-0.3398438,0.2524414-0.6923828,0.2475586-1.0576172   c0-0.1796875-0.0175781-0.3647461-0.0522461-0.5546875c-0.0400391-0.1801758-0.1049805-0.3500977-0.1953125-0.5102539   c-0.0898438-0.1601562-0.2050781-0.2900391-0.3447266-0.390137c-0.1499023-0.0947266-0.3300781-0.1420898-0.5400391-0.1420898   c-0.2250977,0-0.4077148,0.0473633-0.5473633,0.1420898c-0.1455078,0.090332-0.2626953,0.2153323-0.3525391,0.3750002   c-0.0800781,0.1503906-0.1401367,0.3203125-0.1801758,0.5102539c-0.0351562,0.1899414-0.0527344,0.3798828-0.0527344,0.5698242   C95.4490891,5.536592,95.4666672,5.7192092,95.5018234,5.9037795z"/>
	<path stroke-width="0.25" stroke="black" d="M102.9417648,6.9540725c0,0.5449219-0.1328125,1-0.3974609,1.3647456   c-0.2749023,0.3701172-0.7402344,0.5600586-1.3950195,0.5703125c-0.25-0.0053711-0.4799805-0.0327148-0.6899414-0.0825195   c-0.2050781-0.050293-0.3603516-0.090332-0.465332-0.1201172l0.0375977-0.4726562   c0.3149414,0.1699219,0.6899414,0.2602539,1.125,0.2700195c0.3051758-0.0048828,0.5449219-0.0600586,0.7202148-0.1650391   c0.1796875-0.1000977,0.3125-0.2397461,0.3974609-0.4199214c0.0898438-0.1796875,0.1474609-0.387207,0.1723633-0.6225586   c0.0200195-0.2348633,0.0302734-0.4873047,0.0302734-0.7573242h-0.0151367   c-0.2700195,0.5097656-0.6577148,0.7597656-1.1625977,0.75c-0.6000977-0.0151367-1.0200195-0.2299805-1.2597656-0.6450195   c-0.1254883-0.1899414-0.2128906-0.3950195-0.2626953-0.6147461c-0.0600586-0.2202148-0.0898438-0.4375-0.0898438-0.652832   c-0.0053711-0.5947266,0.1171875-1.074707,0.3671875-1.4399416c0.25-0.3701172,0.652832-0.5576172,1.2075195-0.5625   c0.25,0,0.4702148,0.0273438,0.6601562,0.0825195c0.1850586,0.0703125,0.3623047,0.2172852,0.5322266,0.4423828h0.0151367   V3.4438183h0.4726562V6.9540725z M100.459343,6.3842483c0.1699219,0.3100586,0.4521484,0.4697266,0.847168,0.4799805   c0.425293-0.0102539,0.7275391-0.175293,0.9077148-0.4951172c0.1699219-0.3100586,0.2548828-0.6474609,0.2548828-1.0126953   c0-0.4750977-0.0800781-0.8574219-0.2397461-1.1474609c-0.1650391-0.2949221-0.4628906-0.4448245-0.8925781-0.4497073   c-0.2250977,0-0.4077148,0.0473633-0.5473633,0.1420898c-0.1455078,0.090332-0.2626953,0.2153323-0.3525391,0.3750002   c-0.0800781,0.1503906-0.1401367,0.3203125-0.1801758,0.5102539c-0.0351562,0.1899414-0.0527344,0.3798828-0.0527344,0.5698242   C100.1990891,5.7465529,100.28405,6.0888381,100.459343,6.3842483z"/>
	<path stroke-width="0.25" stroke="black" d="M107.2322922,7.1488967c-0.3603516,0.1352539-0.7304688,0.2050781-1.1103516,0.2099609   c-0.625-0.0097656-1.0722656-0.2021484-1.3422852-0.5771484c-0.2700195-0.3652344-0.402832-0.840332-0.3974609-1.425293   c0.0048828-0.5947266,0.1547852-1.0771484,0.449707-1.4472659c0.2851562-0.3652344,0.6723633-0.550293,1.1625977-0.5551758   c0.5351562,0.0102539,0.9248047,0.1977539,1.1699219,0.5625c0.2353516,0.3598635,0.3525391,0.805176,0.3525391,1.3349612v0.2402344   h-2.6171875c0,0.4150391,0.1074219,0.7573242,0.3222656,1.0273438c0.2099609,0.2851562,0.5224609,0.4301758,0.9375,0.4350586   c0.1850586,0,0.3798828-0.0327148,0.5849609-0.0976562c0.2050781-0.0546875,0.3676758-0.1171875,0.487793-0.1875V7.1488967z    M106.999382,5.0863967c0-0.3496094-0.0722656-0.6547852-0.2172852-0.9150391   c-0.1552734-0.2646487-0.4077148-0.402344-0.7573242-0.4121096c-0.3452148,0.0097656-0.6176758,0.1499023-0.8178711,0.4199221   c-0.2050781,0.2700195-0.3071289,0.5722656-0.3071289,0.9072266H106.999382z"/>
	<path stroke-width="0.25" stroke="black" d="M109.0018234,4.3442092c0-0.2949219-0.0097656-0.5952151-0.0297852-0.9003909h0.4575195v0.6826174h0.0151367   c0.0449219-0.0898438,0.097168-0.1796877,0.1572266-0.2700198c0.0600586-0.0898438,0.1352539-0.1723633,0.2250977-0.2475586   c0.0947266-0.0795898,0.2124023-0.1425781,0.3525391-0.1875s0.3076172-0.0673828,0.5024414-0.0673828   c0.4697266,0.0048828,0.8076172,0.1450195,1.0126953,0.4199219c0.1948242,0.2700198,0.2924805,0.6201174,0.2924805,1.0502932   v2.4448242h-0.4726562V4.9438186c0-0.3647461-0.0673828-0.6547852-0.2026367-0.8696289   c-0.1450195-0.2050784-0.3798828-0.3100588-0.7050781-0.3149416c-0.4199219,0.0097656-0.7148438,0.159668-0.8847656,0.4497073   c-0.0898438,0.1352539-0.1523438,0.2827148-0.1875,0.4423828c-0.0400391,0.1650391-0.0600586,0.3325195-0.0600586,0.5024414   v2.1152344h-0.4726562V4.3442092z"/>
	<path stroke-width="0.25" stroke="black" d="M113.8992844,3.9613965c0.2900391-0.3950195,0.7402344-0.597168,1.3500977-0.6074219   c0.6201172,0.0102539,1.0751953,0.2124023,1.3652344,0.6074219c0.2797852,0.3852541,0.4199219,0.8500979,0.4199219,1.3950198   c0,0.5351562-0.1401367,0.9975586-0.4199219,1.3876953c-0.2900391,0.3999023-0.7451172,0.6049805-1.3652344,0.6147461   c-0.6098633-0.0097656-1.0600586-0.2148438-1.3500977-0.6147461c-0.2900391-0.3901367-0.4350586-0.8525391-0.4350586-1.3876953   C113.4642258,4.8114944,113.6092453,4.3466506,113.8992844,3.9613965z M114.311882,6.4814162   c0.2099609,0.3100586,0.5224609,0.4677734,0.9375,0.4726562c0.4150391-0.0048828,0.7324219-0.1625977,0.9526367-0.4726562   c0.2099609-0.2949219,0.3149414-0.6699219,0.3149414-1.125c0-0.4545898-0.1049805-0.8349609-0.3149414-1.1401367   c-0.2202148-0.2998049-0.5375977-0.4521487-0.9526367-0.4570315c-0.4150391,0.0048828-0.7275391,0.1572266-0.9375,0.4570315   c-0.2202148,0.3051758-0.3300781,0.6855469-0.3300781,1.1401367C113.9818039,5.8114944,114.0916672,6.1864944,114.311882,6.4814162   z"/>
	<path stroke-width="0.25" stroke="black" d="M119.2166672,6.9540725c0.2348633,0,0.4350586-0.0625,0.6000977-0.1875   c0.1601562-0.1152344,0.2426758-0.2797852,0.2475586-0.4951172c-0.0048828-0.2250977-0.0976562-0.4023438-0.2773438-0.5322266   c-0.1801758-0.125-0.3925781-0.237793-0.6376953-0.3378906c-0.1152344-0.0546875-0.2250977-0.1123047-0.3300781-0.1723633   s-0.2050781-0.1274414-0.2998047-0.2026367c-0.0849609-0.0795898-0.1552734-0.1723633-0.2099609-0.2773438   c-0.0551758-0.1000977-0.0825195-0.2172852-0.0825195-0.3525391c0.0048828-0.3798828,0.1347656-0.6499026,0.3896484-0.8100588   c0.2451172-0.1547852,0.5302734-0.2324219,0.8554688-0.2324219c0.1098633,0,0.2519531,0.0102539,0.4272461,0.0302734   c0.1748047,0.0297852,0.3476562,0.0771484,0.5175781,0.1420898l-0.0449219,0.4125977   c-0.2753906-0.1147461-0.5576172-0.1748047-0.8476562-0.1796875c-0.2451172,0-0.4399414,0.0449219-0.5849609,0.1347656   c-0.0751953,0.0449219-0.1323242,0.1074221-0.1723633,0.1875002c-0.0449219,0.0800781-0.0678711,0.1850586-0.0678711,0.3149414   c0,0.0800781,0.027832,0.1552734,0.0825195,0.2250977c0.0551758,0.0649414,0.1279297,0.125,0.2177734,0.1801758   c0.0898438,0.0498047,0.1923828,0.1025391,0.3076172,0.1572266c0.1147461,0.050293,0.2270508,0.1049805,0.3374023,0.1650391   c0.25,0.1049805,0.4672852,0.2451172,0.6523438,0.4199219c0.1850586,0.175293,0.2797852,0.4174805,0.2851562,0.7275391   c0,0.2001953-0.0400391,0.3676758-0.1201172,0.5024414c-0.0849609,0.1401367-0.1923828,0.2524414-0.3222656,0.3374023   c-0.2802734,0.1650391-0.5776367,0.2475586-0.8925781,0.2475586c-0.3701172,0-0.7275391-0.0600586-1.0727539-0.1796875   l0.0449219-0.465332C118.5091476,6.8691115,118.8416672,6.9491897,119.2166672,6.9540725z"/>
	<path stroke-width="0.25" stroke="black" d="M122.7191086,6.9540725c0.2348633,0,0.4350586-0.0625,0.6000977-0.1875   c0.1601562-0.1152344,0.2426758-0.2797852,0.2475586-0.4951172c-0.0048828-0.2250977-0.0976562-0.4023438-0.2773438-0.5322266   c-0.1801758-0.125-0.3925781-0.237793-0.6376953-0.3378906c-0.1152344-0.0546875-0.2250977-0.1123047-0.3300781-0.1723633   s-0.2050781-0.1274414-0.2998047-0.2026367c-0.0849609-0.0795898-0.1552734-0.1723633-0.2099609-0.2773438   c-0.0551758-0.1000977-0.0825195-0.2172852-0.0825195-0.3525391c0.0048828-0.3798828,0.1347656-0.6499026,0.3896484-0.8100588   c0.2451172-0.1547852,0.5302734-0.2324219,0.8554688-0.2324219c0.1098633,0,0.2519531,0.0102539,0.4272461,0.0302734   c0.1748047,0.0297852,0.3476562,0.0771484,0.5175781,0.1420898l-0.0449219,0.4125977   c-0.2753906-0.1147461-0.5576172-0.1748047-0.8476562-0.1796875c-0.2451172,0-0.4399414,0.0449219-0.5849609,0.1347656   c-0.0751953,0.0449219-0.1323242,0.1074221-0.1723633,0.1875002c-0.0449219,0.0800781-0.0678711,0.1850586-0.0678711,0.3149414   c0,0.0800781,0.027832,0.1552734,0.0825195,0.2250977c0.0551758,0.0649414,0.1279297,0.125,0.2177734,0.1801758   c0.0898438,0.0498047,0.1923828,0.1025391,0.3076172,0.1572266c0.1147461,0.050293,0.2270508,0.1049805,0.3374023,0.1650391   c0.25,0.1049805,0.4672852,0.2451172,0.6523438,0.4199219c0.1850586,0.175293,0.2797852,0.4174805,0.2851562,0.7275391   c0,0.2001953-0.0400391,0.3676758-0.1201172,0.5024414c-0.0849609,0.1401367-0.1923828,0.2524414-0.3222656,0.3374023   c-0.2802734,0.1650391-0.5776367,0.2475586-0.8925781,0.2475586c-0.3701172,0-0.7275391-0.0600586-1.0727539-0.1796875   l0.0449219-0.465332C122.0115891,6.8691115,122.3441086,6.9491897,122.7191086,6.9540725z"/>
	<path stroke-width="0.25" stroke="black" d="M128.0819092,7.1488967c-0.3603592,0.1352539-0.7304764,0.2050781-1.1103592,0.2099609   c-0.625-0.0097656-1.0722656-0.2021484-1.3422852-0.5771484c-0.2700195-0.3652344-0.402832-0.840332-0.3974609-1.425293   c0.0048828-0.5947266,0.1547852-1.0771484,0.449707-1.4472659c0.2851562-0.3652344,0.6723633-0.550293,1.1625977-0.5551758   c0.5351562,0.0102539,0.9248047,0.1977539,1.1699295,0.5625c0.2353516,0.3598635,0.3525391,0.805176,0.3525391,1.3349612v0.2402344   h-2.6171951c0,0.4150391,0.1074219,0.7573242,0.3222656,1.0273438c0.2099609,0.2851562,0.5224609,0.4301758,0.9375,0.4350586   c0.1850586,0,0.3798828-0.0327148,0.5849609-0.0976562c0.2050781-0.0546875,0.3676758-0.1171875,0.4878006-0.1875V7.1488967z    M127.8489914,5.0863967c0-0.3496094-0.0722656-0.6547852-0.2172852-0.9150391   c-0.1552734-0.2646487-0.4077148-0.402344-0.7573242-0.4121096c-0.3452148,0.0097656-0.6176758,0.1499023-0.8178711,0.4199221   c-0.2050781,0.2700195-0.3071289,0.5722656-0.3071289,0.9072266H127.8489914z"/>
	<path stroke-width="0.25" stroke="black" d="M129.8514404,4.3442092c0-0.2949219-0.0097656-0.5952151-0.0297852-0.9003909h0.4575195v0.6826174h0.0151367   c0.0449219-0.0898438,0.097168-0.1796877,0.1572266-0.2700198c0.0600586-0.0898438,0.1352539-0.1723633,0.2250977-0.2475586   c0.0947266-0.0795898,0.2124023-0.1425781,0.3525391-0.1875s0.3076172-0.0673828,0.5024414-0.0673828   c0.4697266,0.0048828,0.8076172,0.1450195,1.0126953,0.4199219c0.1948242,0.2700198,0.2924805,0.6201174,0.2924805,1.0502932   v2.4448242h-0.4726562V4.9438186c0-0.3647461-0.0673828-0.6547852-0.2026367-0.8696289   c-0.1450195-0.2050784-0.3798828-0.3100588-0.7050781-0.3149416c-0.4199219,0.0097656-0.7148438,0.159668-0.8847656,0.4497073   c-0.0898438,0.1352539-0.1523438,0.2827148-0.1875,0.4423828c-0.0400391,0.1650391-0.0600586,0.3325195-0.0600586,0.5024414   v2.1152344h-0.4726562V4.3442092z"/>
	<path stroke-width="0.25" stroke="black" d="M135.3114014,6.9540725c0.2348633,0,0.4350586-0.0625,0.6000977-0.1875   c0.1601562-0.1152344,0.2426758-0.2797852,0.2475586-0.4951172c-0.0048828-0.2250977-0.0976562-0.4023438-0.2773438-0.5322266   c-0.1801758-0.125-0.3925781-0.237793-0.6376953-0.3378906c-0.1152344-0.0546875-0.2250977-0.1123047-0.3300781-0.1723633   s-0.2050781-0.1274414-0.2998047-0.2026367c-0.0849609-0.0795898-0.1552734-0.1723633-0.2099609-0.2773438   c-0.0551758-0.1000977-0.0825195-0.2172852-0.0825195-0.3525391c0.0048828-0.3798828,0.1347656-0.6499026,0.3896484-0.8100588   c0.2451172-0.1547852,0.5302734-0.2324219,0.8554688-0.2324219c0.1098633,0,0.2519531,0.0102539,0.4272461,0.0302734   c0.1748047,0.0297852,0.3476562,0.0771484,0.5175781,0.1420898l-0.0449219,0.4125977   c-0.2753906-0.1147461-0.5576172-0.1748047-0.8476562-0.1796875c-0.2451172,0-0.4399414,0.0449219-0.5849609,0.1347656   c-0.0751953,0.0449219-0.1323242,0.1074221-0.1723633,0.1875002c-0.0449219,0.0800781-0.0678711,0.1850586-0.0678711,0.3149414   c0,0.0800781,0.027832,0.1552734,0.0825195,0.2250977c0.0551758,0.0649414,0.1279297,0.125,0.2177734,0.1801758   c0.0898438,0.0498047,0.1923828,0.1025391,0.3076172,0.1572266c0.1147461,0.050293,0.2270508,0.1049805,0.3374023,0.1650391   c0.25,0.1049805,0.4672852,0.2451172,0.6523438,0.4199219c0.1850586,0.175293,0.2797852,0.4174805,0.2851562,0.7275391   c0,0.2001953-0.0400391,0.3676758-0.1201172,0.5024414c-0.0849609,0.1401367-0.1923828,0.2524414-0.3222656,0.3374023   c-0.2802734,0.1650391-0.5776367,0.2475586-0.8925781,0.2475586c-0.3701172,0-0.7275391-0.0600586-1.0727539-0.1796875   l0.0449219-0.465332C134.6038818,6.8691115,134.9364014,6.9491897,135.3114014,6.9540725z"/>
	<path stroke-width="0.25" stroke="black" d="M140.598999,3.9540722c-0.2700195-0.125-0.5424805-0.1899414-0.8173828-0.1948242   c-0.4604492,0.0048828-0.8125,0.1523438-1.0576172,0.4423831c-0.2548828,0.2949219-0.3823242,0.6796875-0.3823242,1.1547852   c0,0.4453125,0.1245117,0.8173828,0.375,1.1176758c0.2446289,0.3149414,0.5820312,0.4750977,1.012207,0.4799805   c0.2949219,0,0.5825195-0.0576172,0.862793-0.1723633l0.0449219,0.4423828   c-0.3100586,0.0947266-0.6376953,0.1396484-0.9824219,0.1347656c-0.6152344-0.0097656-1.0727539-0.2124023-1.3725586-0.6074219   c-0.3051758-0.3847656-0.4575195-0.8500977-0.4575195-1.3950195c0.0048828-0.6049805,0.1796875-1.0874023,0.5249023-1.4472659   c0.3398438-0.3652344,0.7949219-0.550293,1.3647461-0.5551758c0.2353516,0,0.4301758,0.0175781,0.5854492,0.0527344   c0.0795898,0.0146484,0.1499023,0.0297852,0.2099609,0.0449219c0.0546875,0.0200195,0.097168,0.0375977,0.1274414,0.0522461   L140.598999,3.9540722z"/>
	<path stroke-width="0.25" stroke="black" d="M142.0238037,1.6440138h0.4726562v2.4448242h0.0151367c0.1049805-0.214844,0.2597656-0.3920901,0.4648438-0.5322268   c0.2050781-0.1298828,0.4472656-0.1977539,0.7275391-0.2026367c0.5102539,0.0048828,0.8569336,0.1552734,1.0424805,0.4501953   c0.1796875,0.2998049,0.2675781,0.6923831,0.2626953,1.1772463v2.2875977h-0.4726562V4.9892287   c0-0.1699219-0.0107422-0.3300781-0.0302734-0.4799805c-0.0195312-0.1450195-0.0625-0.2724609-0.1279297-0.3828125   c-0.1191406-0.2397463-0.3691406-0.3623049-0.7495117-0.3671877c-0.409668,0.0097656-0.7021484,0.1674805-0.8774414,0.4721682   c-0.1748047,0.3051758-0.2597656,0.6352539-0.2548828,0.9902344v2.0473633h-0.4726562V1.6440138z"/>
	<path stroke-width="0.25" stroke="black" d="M148.9759521,6.6537795h-0.0146484c-0.1103516,0.2250977-0.2773438,0.3979492-0.5029297,0.5175781   c-0.2246094,0.1201172-0.4619141,0.1826172-0.7119141,0.1875c-0.265625-0.0048828-0.4804688-0.0473633-0.6455078-0.1274414   c-0.1699219-0.074707-0.2998047-0.1699219-0.3896484-0.284668c-0.1601562-0.25-0.2353516-0.4726562-0.2255859-0.6679688   c0-0.3198242,0.078125-0.5722656,0.2333984-0.7573242c0.1494141-0.1850586,0.3417969-0.3173828,0.5771484-0.3974609   c0.234375-0.0849609,0.4902344-0.1401367,0.7646484-0.1650391c0.2705078-0.0151367,0.5302734-0.0224609,0.7802734-0.0224609   h0.0898438V4.7416701c0.0146484-0.6552734-0.2753906-0.9824221-0.8701172-0.9824221   c-0.3945312-0.0053711-0.7695312,0.0996094-1.125,0.3149416V3.6166699c0.3554688-0.1650391,0.7304688-0.2524414,1.125-0.2626953   c0.9052734-0.0097656,1.3525391,0.4648438,1.3427734,1.4248049v1.6875   c-0.0048828,0.2900391,0.0078125,0.5576172,0.0371094,0.8027344h-0.4648438V6.6537795z M148.9310303,5.3412795h-0.1347656   c-0.2050781,0-0.4101562,0.0053711-0.6152344,0.0151367c-0.2148438,0.0200195-0.4101562,0.0625-0.5849609,0.1274414   c-0.1748047,0.0600586-0.3144531,0.152832-0.4199219,0.277832c-0.1152344,0.125-0.1728516,0.2924805-0.1728516,0.5024414   c0,0.2451172,0.0800781,0.4199219,0.2402344,0.5249023c0.1503906,0.1098633,0.3349609,0.1650391,0.5546875,0.1650391   c0.2753906,0,0.4931641-0.0551758,0.6533203-0.1650391c0.1542969-0.1049805,0.2666016-0.2299805,0.3369141-0.375   c0.0751953-0.1547852,0.1171875-0.3076172,0.1279297-0.4575195c0.0097656-0.1547852,0.0146484-0.2822266,0.0146484-0.3823242   V5.3412795z"/>
	<path stroke-width="0.25" stroke="black" d="M151.4368896,3.8490918h-0.7724609V3.4438183h0.7724609V3.1664746c0-0.2050781,0.0097656-0.4047852,0.0302734-0.6000977   c0.0097656-0.1899414,0.046875-0.3598633,0.1123047-0.5097656c0.0644531-0.154785,0.1669922-0.2778319,0.3076172-0.3676757   c0.1347656-0.0898438,0.3222656-0.1347656,0.5625-0.1347656c0.0800781,0,0.1621094,0.0024414,0.2470703,0.0073242   c0.0849609,0.0151367,0.1503906,0.0375977,0.1953125,0.0673828l-0.0302734,0.4052733   c-0.1044922-0.0502928-0.2294922-0.0751952-0.375-0.0751952c-0.1552734,0-0.2724609,0.0351562-0.3525391,0.1049803   c-0.0849609,0.0800781-0.1425781,0.1777344-0.171875,0.2924805c-0.0302734,0.1152344-0.0458984,0.237793-0.0458984,0.3676758   c-0.0048828,0.1347656-0.0068359,0.2651367-0.0068359,0.3901367v0.3295898h0.8623047v0.4052734h-0.8623047v3.4199221h-0.4726562   V3.8490918z"/>
	<path stroke-width="0.25" stroke="black" d="M155.8460693,3.8490918h-0.8701172v2.4750979c0,0.1748047,0.0400391,0.3222656,0.1201172,0.4423828   c0.0751953,0.125,0.2050781,0.1875,0.390625,0.1875c0.1699219,0,0.3144531-0.0302734,0.4345703-0.0898438l0.0302734,0.3896484   c-0.0556641,0.0200195-0.1328125,0.0424805-0.2324219,0.0678711c-0.1054688,0.0249023-0.2207031,0.0371094-0.3457031,0.0371094   c-0.2050781,0-0.3671875-0.034668-0.4873047-0.1049805c-0.1152344-0.0698242-0.2021484-0.1621094-0.2626953-0.2773438   c-0.0498047-0.1201172-0.0820312-0.2548828-0.0966797-0.4047852c-0.015625-0.1503906-0.0224609-0.3125-0.0224609-0.487793   V3.8490918h-0.75V3.4438183h0.75V2.521455l0.4716797-0.1650391v1.0874023h0.8701172V3.8490918z"/>
	<path stroke-width="0.25" stroke="black" d="M32.8841476,12.7817087c-0.2148438-0.0249023-0.4174805-0.0375977-0.6074219-0.0375977   c-0.6796856,0.0102539-1.2026348,0.2226562-1.5673809,0.6376953c-0.3701172,0.4150391-0.5551758,0.9550781-0.5551758,1.6196289   c0,0.6704102,0.1826172,1.2104502,0.5478516,1.6201181c0.3598633,0.4199219,0.8847656,0.6328125,1.5747051,0.6376953   c0.1801758,0,0.3828125-0.0175781,0.6074219-0.0527344c0.2202148-0.0297852,0.4077148-0.0874023,0.5625-0.1723633   l0.0302734,0.4501953c-0.1552734,0.0795898-0.3476562,0.137207-0.5776367,0.1723633   c-0.2348633,0.034668-0.4423828,0.0522461-0.6225586,0.0522461c-0.8300762-0.0097656-1.4750957-0.2597656-1.9350567-0.75   c-0.4697266-0.4848633-0.7045898-1.137208-0.7045898-1.9575205c0.0048828-0.8100586,0.2421875-1.4624023,0.7124023-1.9575195   c0.4648438-0.4897461,1.1074219-0.7397461,1.9272442-0.75c0.1699219,0,0.3774414,0.0126953,0.6225586,0.0375977   c0.2402344,0.0302734,0.4326172,0.0825195,0.5776367,0.1577148l-0.0302734,0.4799805   C33.2767258,12.8788767,33.0892258,12.816865,32.8841476,12.7817087z"/>
	<path stroke-width="0.25" stroke="black" d="M35.5316086,14.3114939c0.2900391-0.3950195,0.7402344-0.597168,1.3500977-0.6074219   c0.6201172,0.0102539,1.0751953,0.2124023,1.3652344,0.6074219c0.2797852,0.3852539,0.4199219,0.8500977,0.4199219,1.3950195   c0,0.5351572-0.1401367,0.9975595-0.4199219,1.3876963c-0.2900391,0.3999023-0.7451172,0.6049805-1.3652344,0.6147461   c-0.6098633-0.0097656-1.0600586-0.2148438-1.3500977-0.6147461c-0.2900391-0.3901367-0.4350586-0.8525391-0.4350586-1.3876963   C35.09655,15.1615915,35.2415695,14.6967478,35.5316086,14.3114939z M35.9442062,16.8315144   c0.2099609,0.3100586,0.5224609,0.4677734,0.9375,0.4726562c0.4150391-0.0048828,0.7324219-0.1625977,0.9526367-0.4726562   c0.2099609-0.2949219,0.3149414-0.6699219,0.3149414-1.125001c0-0.4545898-0.1049805-0.8349609-0.3149414-1.1401367   c-0.2202148-0.2998047-0.5375977-0.4521484-0.9526367-0.4570312c-0.4150391,0.0048828-0.7275391,0.1572266-0.9375,0.4570312   c-0.2202148,0.3051758-0.3300781,0.6855469-0.3300781,1.1401367   C35.6141281,16.1615925,35.7239914,16.5365925,35.9442062,16.8315144z"/>
	<path stroke-width="0.25" stroke="black" d="M40.1439133,14.6943064c0-0.2949219-0.0097656-0.5952148-0.0297852-0.9003906h0.4575195v0.6826172h0.0151367   c0.0449219-0.0898438,0.097168-0.1796875,0.1572266-0.2700195c0.0600586-0.0898438,0.1352539-0.1723633,0.2250977-0.2475586   c0.0947266-0.0795898,0.2124023-0.1425781,0.3525391-0.1875s0.3076172-0.0673828,0.5024414-0.0673828   c0.4697266,0.0048828,0.8076172,0.1450195,1.0126953,0.4199219c0.1948242,0.2700195,0.2924805,0.6201172,0.2924805,1.050293   v2.4448252h-0.4726562v-2.3251963c0-0.3647461-0.0673828-0.6547852-0.2026367-0.8696289   c-0.1450195-0.2050781-0.3798828-0.3100586-0.7050781-0.3149414c-0.4199219,0.0097656-0.7148438,0.159668-0.8847656,0.449707   c-0.0898438,0.1352539-0.1523438,0.2827148-0.1875,0.4423828c-0.0400391,0.1650391-0.0600586,0.3325195-0.0600586,0.5024414   v2.1152353h-0.4726562V14.6943064z"/>
	<path stroke-width="0.25" stroke="black" d="M45.22155,14.1991892h-0.7724609v-0.4052734H45.22155V13.516572c0-0.2050781,0.0097656-0.4047852,0.0297852-0.6000977   c0.0102539-0.1899414,0.0478516-0.3598633,0.112793-0.5097656c0.0649414-0.1547852,0.1674805-0.277832,0.3076172-0.3676758   c0.1347656-0.0898438,0.3222656-0.1347656,0.5625-0.1347656c0.0795898,0,0.1621094,0.0024414,0.2470703,0.0073242   c0.0849609,0.0151367,0.1503906,0.0375977,0.1953125,0.0673828l-0.0302734,0.4052734   c-0.1049805-0.050293-0.2299805-0.0751953-0.375-0.0751953c-0.1547852,0-0.2724609,0.0351562-0.3525391,0.1049805   c-0.0849609,0.0800781-0.1420898,0.1777344-0.1723633,0.2924805c-0.0297852,0.1152344-0.0449219,0.237793-0.0449219,0.3676758   c-0.0048828,0.1347656-0.0073242,0.2651367-0.0073242,0.3901367v0.3295898h0.8623047v0.4052734h-0.8623047v3.4199228H45.22155   V14.1991892z"/>
	<path stroke-width="0.25" stroke="black" d="M50.5467453,17.4989948c-0.3603516,0.1352539-0.7304688,0.2050781-1.1103516,0.2099609   c-0.625-0.0097656-1.0722656-0.2021484-1.3422852-0.5771484c-0.2700195-0.3652344-0.402832-0.840332-0.3974609-1.4252939   c0.0048828-0.5947266,0.1547852-1.0771484,0.449707-1.4472656c0.2851562-0.3652344,0.6723633-0.550293,1.1625977-0.5551758   c0.5351562,0.0102539,0.9248047,0.1977539,1.1699219,0.5625c0.2353516,0.3598633,0.3525391,0.8051758,0.3525391,1.3349609   v0.2402344h-2.6171875c0,0.41504,0.1074219,0.7573252,0.3222656,1.0273447   c0.2099609,0.2851562,0.5224609,0.4301758,0.9375,0.4350586c0.1850586,0,0.3798828-0.0327148,0.5849609-0.0976562   c0.2050781-0.0546875,0.3676758-0.1171875,0.487793-0.1875V17.4989948z M50.3138351,15.4364939   c0-0.3496094-0.0722656-0.6547852-0.2172852-0.9150391c-0.1552734-0.2646484-0.4077148-0.4023438-0.7573242-0.4121094   c-0.3452148,0.0097656-0.6176758,0.1499023-0.8178711,0.4199219c-0.2050781,0.2700195-0.3071289,0.5722656-0.3071289,0.9072266   H50.3138351z M49.5491867,12.2939157h0.5922852l-0.9448242,1.0800781h-0.3452148L49.5491867,12.2939157z"/>
	<path stroke-width="0.25" stroke="black" d="M55.34655,17.619112h-0.4726562v-0.6074219H54.858757c-0.25,0.4697266-0.6474609,0.7021484-1.1923828,0.6972656   c-0.5249023-0.0097656-0.9174805-0.2021484-1.1772461-0.5771484c-0.2651367-0.375-0.3974609-0.8500977-0.3974609-1.4252939   c-0.0053711-0.5947266,0.1171875-1.074707,0.3671875-1.4399414c0.25-0.3701172,0.652832-0.5576172,1.2075195-0.5625   c0.1899414,0,0.3549805,0.0273438,0.4951172,0.0825195c0.1450195,0.0551758,0.2651367,0.125,0.3598633,0.2099609   c0.1953125,0.175293,0.3076172,0.3227539,0.3374023,0.4423828h0.0151367v-2.4448242H55.34655V17.619112z M52.6614914,16.2538776   c0.0400391,0.1904297,0.1000977,0.3652344,0.1801758,0.5253906c0.0898438,0.1499023,0.2070312,0.2724609,0.3525391,0.3671875   c0.1396484,0.1049805,0.3222656,0.1577148,0.5473633,0.1577148c0.2099609,0,0.3901367-0.0527344,0.5400391-0.1577148   c0.1396484-0.0947266,0.2548828-0.222168,0.3447266-0.3823242c0.1699219-0.3398438,0.2524414-0.6923828,0.2475586-1.0576181   c0-0.1796875-0.0175781-0.3647461-0.0522461-0.5546875c-0.0400391-0.1801758-0.1049805-0.3500977-0.1953125-0.5102539   c-0.0898438-0.1601562-0.2050781-0.2900391-0.3447266-0.3901367c-0.1499023-0.0947266-0.3300781-0.1420898-0.5400391-0.1420898   c-0.2250977,0-0.4077148,0.0473633-0.5473633,0.1420898c-0.1455078,0.090332-0.2626953,0.215332-0.3525391,0.375   c-0.0800781,0.1503906-0.1401367,0.3203125-0.1801758,0.5102539c-0.0351562,0.1899414-0.0527344,0.3798828-0.0527344,0.5698242   C52.608757,15.8866892,52.6263351,16.0693073,52.6614914,16.2538776z"/>
	<path stroke-width="0.25" stroke="black" d="M59.6365891,17.4989948c-0.3603516,0.1352539-0.7304688,0.2050781-1.1103516,0.2099609   c-0.625-0.0097656-1.0722656-0.2021484-1.3422852-0.5771484c-0.2700195-0.3652344-0.402832-0.840332-0.3974609-1.4252939   c0.0048828-0.5947266,0.1547852-1.0771484,0.449707-1.4472656c0.2851562-0.3652344,0.6723633-0.550293,1.1625977-0.5551758   c0.5351562,0.0102539,0.9248047,0.1977539,1.1699219,0.5625c0.2353516,0.3598633,0.3525391,0.8051758,0.3525391,1.3349609   v0.2402344h-2.6171875c0,0.41504,0.1074219,0.7573252,0.3222656,1.0273447   c0.2099609,0.2851562,0.5224609,0.4301758,0.9375,0.4350586c0.1850586,0,0.3798828-0.0327148,0.5849609-0.0976562   c0.2050781-0.0546875,0.3676758-0.1171875,0.487793-0.1875V17.4989948z M59.4036789,15.4364939   c0-0.3496094-0.0722656-0.6547852-0.2172852-0.9150391c-0.1552734-0.2646484-0.4077148-0.4023438-0.7573242-0.4121094   c-0.3452148,0.0097656-0.6176758,0.1499023-0.8178711,0.4199219c-0.2050781,0.2700195-0.3071289,0.5722656-0.3071289,0.9072266   H59.4036789z M58.6390305,12.2939157h0.5922852l-0.9448242,1.0800781h-0.3452148L58.6390305,12.2939157z"/>
	<path stroke-width="0.25" stroke="black" d="M61.4066086,14.6488962c0-0.3549805-0.0097656-0.6396484-0.0297852-0.8549805h0.4726562v0.7353516h0.0146484   c0.090332-0.2250977,0.2177734-0.4174805,0.3828125-0.5776367c0.159668-0.1601562,0.3598633-0.2426758,0.6000977-0.2475586   c0.1245117,0.0048828,0.2348633,0.0200195,0.3295898,0.0449219v0.4951172   c-0.1049805-0.0297852-0.2197266-0.0449219-0.3447266-0.0449219c-0.1850586,0.0048828-0.3374023,0.0498047-0.4575195,0.1347656   c-0.1201172,0.090332-0.2177734,0.2128906-0.2924805,0.3676758c-0.0703125,0.1499023-0.1201172,0.3125-0.1499023,0.4873047   c-0.0351562,0.1850586-0.0527344,0.3652344-0.0527344,0.5400391v1.8901377h-0.4726562V14.6488962z"/>
	<path stroke-width="0.25" stroke="black" d="M66.686882,17.0038776h-0.0151367c-0.1098633,0.2250977-0.2773438,0.3979492-0.5024414,0.5175781   c-0.2250977,0.1201172-0.4624023,0.1826172-0.7124023,0.1875c-0.2651367-0.0048828-0.4799805-0.0473633-0.6450195-0.1274414   c-0.1699219-0.074707-0.2998047-0.1699219-0.3901367-0.284668c-0.1601562-0.25-0.2348633-0.4726562-0.2250977-0.6679688   c0-0.3198242,0.0776367-0.5722656,0.2329102-0.7573252c0.1499023-0.1850586,0.3422852-0.3173828,0.5771484-0.3974609   c0.2348633-0.0849609,0.4902344-0.1401367,0.7651367-0.1650391c0.2700195-0.0151367,0.5297852-0.0224609,0.7797852-0.0224609   h0.090332v-0.1948242c0.0146484-0.6552734-0.2753906-0.9824219-0.8701172-0.9824219   c-0.3950195-0.0053711-0.7700195,0.0996094-1.125,0.3149414v-0.4575195c0.3549805-0.1650391,0.7299805-0.2524414,1.125-0.2626953   c0.9047852-0.0097656,1.3525391,0.4648438,1.3422852,1.4248047v1.687501   c-0.0048828,0.2900391,0.0078125,0.5576172,0.0375977,0.8027344H66.686882V17.0038776z M66.6419601,15.6913767h-0.1352539   c-0.2050781,0-0.409668,0.0053711-0.6147461,0.0151367c-0.215332,0.0200195-0.4101562,0.0625-0.5849609,0.1274414   c-0.175293,0.0600586-0.3149414,0.152832-0.4199219,0.277833c-0.1152344,0.125-0.1728516,0.2924805-0.1728516,0.5024414   c0,0.2451172,0.0800781,0.4199219,0.2402344,0.5249023c0.1499023,0.1098633,0.3349609,0.1650391,0.5546875,0.1650391   c0.2749023,0,0.4926758-0.0551758,0.652832-0.1650391c0.1547852-0.1049805,0.2670898-0.2299805,0.3374023-0.375   c0.0751953-0.1547852,0.1171875-0.3076172,0.1274414-0.4575195c0.0097656-0.1547852,0.0151367-0.2822266,0.0151367-0.3823252   V15.6913767z"/>
	<path stroke-width="0.25" stroke="black" d="M70.4744797,14.1991892h-0.8701172v2.4750986c0,0.1748047,0.0400391,0.3222656,0.1201172,0.4423828   c0.074707,0.125,0.2045898,0.1875,0.3896484,0.1875c0.1699219,0,0.3149414-0.0302734,0.4350586-0.0898438l0.0302734,0.3896484   c-0.0551758,0.0200195-0.1328125,0.0424805-0.2324219,0.0678711c-0.1054688,0.0249023-0.2202148,0.0371094-0.3452148,0.0371094   c-0.2050781,0-0.3676758-0.034668-0.4873047-0.1049805c-0.1152344-0.0698242-0.2026367-0.1621094-0.2626953-0.2773438   c-0.050293-0.1201172-0.0825195-0.2548828-0.0976562-0.4047852c-0.0146484-0.1503906-0.0224609-0.3125-0.0224609-0.487793   v-2.2348642h-0.75v-0.4052734h0.75v-0.9223633l0.4726562-0.1650391v1.0874023h0.8701172V14.1991892z"/>
	<path stroke-width="0.25" stroke="black" d="M72.3792648,12.7738962h-0.4726562v-0.6298828h0.4726562V12.7738962z M71.9066086,13.7939157h0.4726562v3.8251963   h-0.4726562V13.7939157z"/>
	<path stroke-width="0.25" stroke="black" d="M74.2991867,14.3114939c0.2900391-0.3950195,0.7402344-0.597168,1.3500977-0.6074219   c0.6201172,0.0102539,1.0751953,0.2124023,1.3652344,0.6074219c0.2797852,0.3852539,0.4199219,0.8500977,0.4199219,1.3950195   c0,0.5351572-0.1401367,0.9975595-0.4199219,1.3876963c-0.2900391,0.3999023-0.7451172,0.6049805-1.3652344,0.6147461   c-0.6098633-0.0097656-1.0600586-0.2148438-1.3500977-0.6147461c-0.2900391-0.3901367-0.4350586-0.8525391-0.4350586-1.3876963   C73.8641281,15.1615915,74.0091476,14.6967478,74.2991867,14.3114939z M74.7117844,16.8315144   c0.2099609,0.3100586,0.5224609,0.4677734,0.9375,0.4726562c0.4150391-0.0048828,0.7324219-0.1625977,0.9526367-0.4726562   c0.2099609-0.2949219,0.3149414-0.6699219,0.3149414-1.125001c0-0.4545898-0.1049805-0.8349609-0.3149414-1.1401367   c-0.2202148-0.2998047-0.5375977-0.4521484-0.9526367-0.4570312c-0.4150391,0.0048828-0.7275391,0.1572266-0.9375,0.4570312   c-0.2202148,0.3051758-0.3300781,0.6855469-0.3300781,1.1401367   C74.3817062,16.1615925,74.4915695,16.5365925,74.7117844,16.8315144z"/>
	<path stroke-width="0.25" stroke="black" d="M78.9114914,14.6943064c0-0.2949219-0.0097656-0.5952148-0.0297852-0.9003906h0.4575195v0.6826172h0.0151367   c0.0449219-0.0898438,0.097168-0.1796875,0.1572266-0.2700195c0.0600586-0.0898438,0.1352539-0.1723633,0.2250977-0.2475586   c0.0947266-0.0795898,0.2124023-0.1425781,0.3525391-0.1875s0.3076172-0.0673828,0.5024414-0.0673828   c0.4697266,0.0048828,0.8076172,0.1450195,1.0126953,0.4199219c0.1948242,0.2700195,0.2924805,0.6201172,0.2924805,1.050293   v2.4448252h-0.4726562v-2.3251963c0-0.3647461-0.0673828-0.6547852-0.2026367-0.8696289   c-0.1450195-0.2050781-0.3798828-0.3100586-0.7050781-0.3149414c-0.4199219,0.0097656-0.7148438,0.159668-0.8847656,0.449707   c-0.0898438,0.1352539-0.1523438,0.2827148-0.1875,0.4423828c-0.0400391,0.1650391-0.0600586,0.3325195-0.0600586,0.5024414   v2.1152353h-0.4726562V14.6943064z"/>
	<path stroke-width="0.25" stroke="black" d="M87.0413742,17.3041706c0.2348633,0,0.4350586-0.0625,0.6000977-0.1875   c0.1601562-0.1152344,0.2426758-0.2797852,0.2475586-0.4951172c-0.0048828-0.2250977-0.0976562-0.4023438-0.2773438-0.5322266   c-0.1801758-0.125001-0.3925781-0.2377939-0.6376953-0.3378916c-0.1152344-0.0546875-0.2250977-0.1123047-0.3300781-0.1723633   s-0.2050781-0.1274414-0.2998047-0.2026367c-0.0849609-0.0795898-0.1552734-0.1723633-0.2099609-0.2773438   c-0.0551758-0.1000977-0.0825195-0.2172852-0.0825195-0.3525391c0.0048828-0.3798828,0.1347656-0.6499023,0.3896484-0.8100586   c0.2451172-0.1547852,0.5302734-0.2324219,0.8554688-0.2324219c0.1098633,0,0.2519531,0.0102539,0.4272461,0.0302734   c0.1748047,0.0297852,0.3476562,0.0771484,0.5175781,0.1420898l-0.0449219,0.4125977   c-0.2753906-0.1147461-0.5576172-0.1748047-0.8476562-0.1796875c-0.2451172,0-0.4399414,0.0449219-0.5849609,0.1347656   c-0.0751953,0.0449219-0.1323242,0.1074219-0.1723633,0.1875c-0.0449219,0.0800781-0.0678711,0.1850586-0.0678711,0.3149414   c0,0.0800781,0.027832,0.1552734,0.0825195,0.2250977c0.0551758,0.0649414,0.1279297,0.125,0.2177734,0.1801758   c0.0898438,0.0498047,0.1923828,0.1025391,0.3076172,0.1572266c0.1147461,0.050293,0.2270508,0.1049805,0.3374023,0.1650391   c0.25,0.1049805,0.4672852,0.2451172,0.6523438,0.4199219c0.1850586,0.1752939,0.2797852,0.4174814,0.2851562,0.72754   c0,0.2001953-0.0400391,0.3676758-0.1201172,0.5024414c-0.0849609,0.1401367-0.1923828,0.2524414-0.3222656,0.3374023   c-0.2802734,0.1650391-0.5776367,0.2475586-0.8925781,0.2475586c-0.3701172,0-0.7275391-0.0600586-1.0727539-0.1796875   l0.0449219-0.465332C86.3338547,17.2192097,86.6663742,17.2992878,87.0413742,17.3041706z"/>
	<path stroke-width="0.25" stroke="black" d="M92.8240891,16.7192097c-0.0053711,0.2900391,0.0048828,0.5898438,0.0297852,0.8999023h-0.4575195v-0.6826172H92.381218   c-0.034668,0.0849609-0.0820312,0.1699219-0.1420898,0.2548828c-0.0600586,0.090332-0.1376953,0.175293-0.2329102,0.2553711   c-0.0947266,0.074707-0.2124023,0.1347656-0.3520508,0.1796875c-0.1401367,0.0551758-0.3100586,0.0825195-0.5102539,0.0825195   c-0.4648438-0.0048828-0.7998047-0.1450195-1.0048828-0.4199219c-0.2050781-0.2700195-0.3051758-0.6196289-0.300293-1.0498047   v-2.4453135h0.4726562v2.3251963c0,0.3652344,0.0722656,0.6499023,0.2177734,0.8549805   c0.1396484,0.2202148,0.3696289,0.3300781,0.6899414,0.3300781c0.2148438,0,0.3974609-0.0449219,0.5473633-0.1352539   c0.1499023-0.0849609,0.2651367-0.1948242,0.3452148-0.3295898c0.0898438-0.1401367,0.1523438-0.2900391,0.1875-0.4501953   c0.034668-0.1601562,0.0522461-0.3198242,0.0522461-0.4799814v-2.1152344h0.4726562V16.7192097z"/>
	<path stroke-width="0.25" stroke="black" d="M95.0662766,12.7738962h-0.4726562v-0.6298828h0.4726562V12.7738962z M94.5936203,13.7939157h0.4726562v3.8251963   h-0.4726562V13.7939157z"/>
	<path stroke-width="0.25" stroke="black" d="M97.5486984,17.3041706c0.2348633,0,0.4350586-0.0625,0.6000977-0.1875   c0.1601562-0.1152344,0.2426758-0.2797852,0.2475586-0.4951172c-0.0048828-0.2250977-0.0976562-0.4023438-0.2773438-0.5322266   c-0.1801758-0.125001-0.3925781-0.2377939-0.6376953-0.3378916c-0.1152344-0.0546875-0.2250977-0.1123047-0.3300781-0.1723633   s-0.2050781-0.1274414-0.2998047-0.2026367c-0.0849609-0.0795898-0.1552734-0.1723633-0.2099609-0.2773438   c-0.0551758-0.1000977-0.0825195-0.2172852-0.0825195-0.3525391c0.0048828-0.3798828,0.1347656-0.6499023,0.3896484-0.8100586   c0.2451172-0.1547852,0.5302734-0.2324219,0.8554688-0.2324219c0.1098633,0,0.2519531,0.0102539,0.4272461,0.0302734   c0.1748047,0.0297852,0.3476562,0.0771484,0.5175781,0.1420898l-0.0449219,0.4125977   c-0.2753906-0.1147461-0.5576172-0.1748047-0.8476562-0.1796875c-0.2451172,0-0.4399414,0.0449219-0.5849609,0.1347656   c-0.0751953,0.0449219-0.1323242,0.1074219-0.1723633,0.1875c-0.0449219,0.0800781-0.0678711,0.1850586-0.0678711,0.3149414   c0,0.0800781,0.027832,0.1552734,0.0825195,0.2250977c0.0551758,0.0649414,0.1279297,0.125,0.2177734,0.1801758   c0.0898438,0.0498047,0.1923828,0.1025391,0.3076172,0.1572266c0.1147461,0.050293,0.2270508,0.1049805,0.3374023,0.1650391   c0.25,0.1049805,0.4672852,0.2451172,0.6523438,0.4199219c0.1850586,0.1752939,0.2797852,0.4174814,0.2851562,0.72754   c0,0.2001953-0.0400391,0.3676758-0.1201172,0.5024414c-0.0849609,0.1401367-0.1923828,0.2524414-0.3222656,0.3374023   c-0.2802734,0.1650391-0.5776367,0.2475586-0.8925781,0.2475586c-0.3701172,0-0.7275391-0.0600586-1.0727539-0.1796875   l0.0449219-0.465332C96.8411789,17.2192097,97.1736984,17.2992878,97.5486984,17.3041706z"/>
	<path stroke-width="0.25" stroke="black" d="M101.0511398,17.3041706c0.2348633,0,0.4350586-0.0625,0.6000977-0.1875   c0.1601562-0.1152344,0.2426758-0.2797852,0.2475586-0.4951172c-0.0048828-0.2250977-0.0976562-0.4023438-0.2773438-0.5322266   c-0.1801758-0.125001-0.3925781-0.2377939-0.6376953-0.3378916c-0.1152344-0.0546875-0.2250977-0.1123047-0.3300781-0.1723633   s-0.2050781-0.1274414-0.2998047-0.2026367c-0.0849609-0.0795898-0.1552734-0.1723633-0.2099609-0.2773438   c-0.0551758-0.1000977-0.0825195-0.2172852-0.0825195-0.3525391c0.0048828-0.3798828,0.1347656-0.6499023,0.3896484-0.8100586   c0.2451172-0.1547852,0.5302734-0.2324219,0.8554688-0.2324219c0.1098633,0,0.2519531,0.0102539,0.4272461,0.0302734   c0.1748047,0.0297852,0.3476562,0.0771484,0.5175781,0.1420898l-0.0449219,0.4125977   c-0.2753906-0.1147461-0.5576172-0.1748047-0.8476562-0.1796875c-0.2451172,0-0.4399414,0.0449219-0.5849609,0.1347656   c-0.0751953,0.0449219-0.1323242,0.1074219-0.1723633,0.1875c-0.0449219,0.0800781-0.0678711,0.1850586-0.0678711,0.3149414   c0,0.0800781,0.027832,0.1552734,0.0825195,0.2250977c0.0551758,0.0649414,0.1279297,0.125,0.2177734,0.1801758   c0.0898438,0.0498047,0.1923828,0.1025391,0.3076172,0.1572266c0.1147461,0.050293,0.2270508,0.1049805,0.3374023,0.1650391   c0.25,0.1049805,0.4672852,0.2451172,0.6523438,0.4199219c0.1850586,0.1752939,0.2797852,0.4174814,0.2851562,0.72754   c0,0.2001953-0.0400391,0.3676758-0.1201172,0.5024414c-0.0849609,0.1401367-0.1923828,0.2524414-0.3222656,0.3374023   c-0.2802734,0.1650391-0.5776367,0.2475586-0.8925781,0.2475586c-0.3701172,0-0.7275391-0.0600586-1.0727539-0.1796875   l0.0449219-0.465332C100.3436203,17.2192097,100.6761398,17.2992878,101.0511398,17.3041706z"/>
	<path stroke-width="0.25" stroke="black" d="M106.4144211,17.4989948c-0.3603516,0.1352539-0.7304688,0.2050781-1.1103516,0.2099609   c-0.625-0.0097656-1.0722656-0.2021484-1.3422852-0.5771484c-0.2700195-0.3652344-0.402832-0.840332-0.3974609-1.4252939   c0.0048828-0.5947266,0.1547852-1.0771484,0.449707-1.4472656c0.2851562-0.3652344,0.6723633-0.550293,1.1625977-0.5551758   c0.5351562,0.0102539,0.9248047,0.1977539,1.1699219,0.5625c0.2353516,0.3598633,0.3525391,0.8051758,0.3525391,1.3349609   v0.2402344h-2.6171875c0,0.41504,0.1074219,0.7573252,0.3222656,1.0273447   c0.2099609,0.2851562,0.5224609,0.4301758,0.9375,0.4350586c0.1850586,0,0.3798828-0.0327148,0.5849609-0.0976562   c0.2050781-0.0546875,0.3676758-0.1171875,0.487793-0.1875V17.4989948z M106.1815109,15.4364939   c0-0.3496094-0.0722656-0.6547852-0.2172852-0.9150391c-0.1552734-0.2646484-0.4077148-0.4023438-0.7573242-0.4121094   c-0.3452148,0.0097656-0.6176758,0.1499023-0.8178711,0.4199219c-0.2050781,0.2700195-0.3071289,0.5722656-0.3071289,0.9072266   H106.1815109z"/>
	<path stroke-width="0.25" stroke="black" d="M32.8841476,23.1318073c-0.2148438-0.0249023-0.4174805-0.0375977-0.6074219-0.0375977   c-0.6796856,0.0102539-1.2026348,0.2226562-1.5673809,0.6376953c-0.3701172,0.4150391-0.5551758,0.9550781-0.5551758,1.6196289   c0,0.6704102,0.1826172,1.2104492,0.5478516,1.6201172c0.3598633,0.4199219,0.8847656,0.6328125,1.5747051,0.6376953   c0.1801758,0,0.3828125-0.0175781,0.6074219-0.0527344c0.2202148-0.0297852,0.4077148-0.0874023,0.5625-0.1723633   l0.0302734,0.4501953c-0.1552734,0.0795898-0.3476562,0.137207-0.5776367,0.1723633   c-0.2348633,0.034668-0.4423828,0.0522461-0.6225586,0.0522461c-0.8300762-0.0097656-1.4750957-0.2597656-1.9350567-0.75   c-0.4697266-0.4848633-0.7045898-1.137207-0.7045898-1.9575195c0.0048828-0.8100586,0.2421875-1.4624023,0.7124023-1.9575195   c0.4648438-0.4897461,1.1074219-0.7397461,1.9272442-0.75c0.1699219,0,0.3774414,0.0126953,0.6225586,0.0375977   c0.2402344,0.0302734,0.4326172,0.0825195,0.5776367,0.1577148l-0.0302734,0.4799805   C33.2767258,23.2289753,33.0892258,23.1669636,32.8841476,23.1318073z"/>
	<path stroke-width="0.25" stroke="black" d="M35.5316086,24.6615925c0.2900391-0.3950195,0.7402344-0.597168,1.3500977-0.6074219   c0.6201172,0.0102539,1.0751953,0.2124023,1.3652344,0.6074219c0.2797852,0.3852539,0.4199219,0.8500977,0.4199219,1.3950195   c0,0.5351562-0.1401367,0.9975586-0.4199219,1.3876953c-0.2900391,0.3999023-0.7451172,0.6049805-1.3652344,0.6147461   c-0.6098633-0.0097656-1.0600586-0.2148438-1.3500977-0.6147461c-0.2900391-0.3901367-0.4350586-0.8525391-0.4350586-1.3876953   C35.09655,25.5116901,35.2415695,25.0468464,35.5316086,24.6615925z M35.9442062,27.181612   c0.2099609,0.3100586,0.5224609,0.4677734,0.9375,0.4726562c0.4150391-0.0048828,0.7324219-0.1625977,0.9526367-0.4726562   c0.2099609-0.2949219,0.3149414-0.6699219,0.3149414-1.125c0-0.4545898-0.1049805-0.8349609-0.3149414-1.1401367   c-0.2202148-0.2998047-0.5375977-0.4521484-0.9526367-0.4570312c-0.4150391,0.0048828-0.7275391,0.1572266-0.9375,0.4570312   c-0.2202148,0.3051758-0.3300781,0.6855469-0.3300781,1.1401367C35.6141281,26.5116901,35.7239914,26.8866901,35.9442062,27.181612   z"/>
	<path stroke-width="0.25" stroke="black" d="M40.1439133,25.044405c0-0.2949219-0.0097656-0.5952148-0.0297852-0.9003906h0.4575195v0.6826172h0.0151367   c0.0449219-0.0898438,0.097168-0.1796875,0.1572266-0.2700195c0.0600586-0.0898438,0.1352539-0.1723633,0.2250977-0.2475586   c0.0947266-0.0795898,0.2124023-0.1425781,0.3525391-0.1875s0.3076172-0.0673828,0.5024414-0.0673828   c0.4697266,0.0048828,0.8076172,0.1450195,1.0126953,0.4199219c0.1948242,0.2700195,0.2924805,0.6201172,0.2924805,1.050293   v2.4448242h-0.4726562v-2.3251953c0-0.3647461-0.0673828-0.6547852-0.2026367-0.8696289   c-0.1450195-0.2050781-0.3798828-0.3100586-0.7050781-0.3149414c-0.4199219,0.0097656-0.7148438,0.159668-0.8847656,0.449707   c-0.0898438,0.1352539-0.1523438,0.2827148-0.1875,0.4423828c-0.0400391,0.1650391-0.0600586,0.3325195-0.0600586,0.5024414   v2.1152344h-0.4726562V25.044405z"/>
	<path stroke-width="0.25" stroke="black" d="M45.22155,24.5492878h-0.7724609v-0.4052734H45.22155v-0.2773438c0-0.2050781,0.0097656-0.4047852,0.0297852-0.6000977   c0.0102539-0.1899414,0.0478516-0.3598633,0.112793-0.5097656c0.0649414-0.1547852,0.1674805-0.277832,0.3076172-0.3676758   c0.1347656-0.0898438,0.3222656-0.1347656,0.5625-0.1347656c0.0795898,0,0.1621094,0.0024414,0.2470703,0.0073242   c0.0849609,0.0151367,0.1503906,0.0375977,0.1953125,0.0673828l-0.0302734,0.4052734   c-0.1049805-0.050293-0.2299805-0.0751953-0.375-0.0751953c-0.1547852,0-0.2724609,0.0351562-0.3525391,0.1049805   c-0.0849609,0.0800781-0.1420898,0.1777344-0.1723633,0.2924805c-0.0297852,0.1152344-0.0449219,0.237793-0.0449219,0.3676758   c-0.0048828,0.1347656-0.0073242,0.2651367-0.0073242,0.3901367v0.3295898h0.8623047v0.4052734h-0.8623047v3.4199219H45.22155   V24.5492878z"/>
	<path stroke-width="0.25" stroke="black" d="M50.5467453,27.8490925c-0.3603516,0.1352539-0.7304688,0.2050781-1.1103516,0.2099609   c-0.625-0.0097656-1.0722656-0.2021484-1.3422852-0.5771484c-0.2700195-0.3652344-0.402832-0.840332-0.3974609-1.425293   c0.0048828-0.5947266,0.1547852-1.0771484,0.449707-1.4472656c0.2851562-0.3652344,0.6723633-0.550293,1.1625977-0.5551758   c0.5351562,0.0102539,0.9248047,0.1977539,1.1699219,0.5625c0.2353516,0.3598633,0.3525391,0.8051758,0.3525391,1.3349609   v0.2402344h-2.6171875c0,0.4150391,0.1074219,0.7573242,0.3222656,1.0273438   c0.2099609,0.2851562,0.5224609,0.4301758,0.9375,0.4350586c0.1850586,0,0.3798828-0.0327148,0.5849609-0.0976562   c0.2050781-0.0546875,0.3676758-0.1171875,0.487793-0.1875V27.8490925z M50.3138351,25.7865925   c0-0.3496094-0.0722656-0.6547852-0.2172852-0.9150391c-0.1552734-0.2646484-0.4077148-0.4023438-0.7573242-0.4121094   c-0.3452148,0.0097656-0.6176758,0.1499023-0.8178711,0.4199219c-0.2050781,0.2700195-0.3071289,0.5722656-0.3071289,0.9072266   H50.3138351z"/>
	<path stroke-width="0.25" stroke="black" d="M55.34655,27.9692097h-0.4726562v-0.6074219H54.858757c-0.25,0.4697266-0.6474609,0.7021484-1.1923828,0.6972656   c-0.5249023-0.0097656-0.9174805-0.2021484-1.1772461-0.5771484c-0.2651367-0.375-0.3974609-0.8500977-0.3974609-1.425293   c-0.0053711-0.5947266,0.1171875-1.074707,0.3671875-1.4399414c0.25-0.3701172,0.652832-0.5576172,1.2075195-0.5625   c0.1899414,0,0.3549805,0.0273438,0.4951172,0.0825195c0.1450195,0.0551758,0.2651367,0.125,0.3598633,0.2099609   c0.1953125,0.175293,0.3076172,0.3227539,0.3374023,0.4423828h0.0151367v-2.4448242H55.34655V27.9692097z M52.6614914,26.6039753   c0.0400391,0.1904297,0.1000977,0.3652344,0.1801758,0.5253906c0.0898438,0.1499023,0.2070312,0.2724609,0.3525391,0.3671875   c0.1396484,0.1049805,0.3222656,0.1577148,0.5473633,0.1577148c0.2099609,0,0.3901367-0.0527344,0.5400391-0.1577148   c0.1396484-0.0947266,0.2548828-0.222168,0.3447266-0.3823242c0.1699219-0.3398438,0.2524414-0.6923828,0.2475586-1.0576172   c0-0.1796875-0.0175781-0.3647461-0.0522461-0.5546875c-0.0400391-0.1801758-0.1049805-0.3500977-0.1953125-0.5102539   c-0.0898438-0.1601562-0.2050781-0.2900391-0.3447266-0.3901367c-0.1499023-0.0947266-0.3300781-0.1420898-0.5400391-0.1420898   c-0.2250977,0-0.4077148,0.0473633-0.5473633,0.1420898c-0.1455078,0.090332-0.2626953,0.215332-0.3525391,0.375   c-0.0800781,0.1503906-0.1401367,0.3203125-0.1801758,0.5102539c-0.0351562,0.1899414-0.0527344,0.3798828-0.0527344,0.5698242   C52.608757,26.2367878,52.6263351,26.419405,52.6614914,26.6039753z"/>
	<path stroke-width="0.25" stroke="black" d="M59.6365891,27.8490925c-0.3603516,0.1352539-0.7304688,0.2050781-1.1103516,0.2099609   c-0.625-0.0097656-1.0722656-0.2021484-1.3422852-0.5771484c-0.2700195-0.3652344-0.402832-0.840332-0.3974609-1.425293   c0.0048828-0.5947266,0.1547852-1.0771484,0.449707-1.4472656c0.2851562-0.3652344,0.6723633-0.550293,1.1625977-0.5551758   c0.5351562,0.0102539,0.9248047,0.1977539,1.1699219,0.5625c0.2353516,0.3598633,0.3525391,0.8051758,0.3525391,1.3349609   v0.2402344h-2.6171875c0,0.4150391,0.1074219,0.7573242,0.3222656,1.0273438   c0.2099609,0.2851562,0.5224609,0.4301758,0.9375,0.4350586c0.1850586,0,0.3798828-0.0327148,0.5849609-0.0976562   c0.2050781-0.0546875,0.3676758-0.1171875,0.487793-0.1875V27.8490925z M59.4036789,25.7865925   c0-0.3496094-0.0722656-0.6547852-0.2172852-0.9150391c-0.1552734-0.2646484-0.4077148-0.4023438-0.7573242-0.4121094   c-0.3452148,0.0097656-0.6176758,0.1499023-0.8178711,0.4199219c-0.2050781,0.2700195-0.3071289,0.5722656-0.3071289,0.9072266   H59.4036789z"/>
	<path stroke-width="0.25" stroke="black" d="M61.4066086,24.9989948c0-0.3549805-0.0097656-0.6396484-0.0297852-0.8549805h0.4726562v0.7353516h0.0146484   c0.090332-0.2250977,0.2177734-0.4174805,0.3828125-0.5776367c0.159668-0.1601562,0.3598633-0.2426758,0.6000977-0.2475586   c0.1245117,0.0048828,0.2348633,0.0200195,0.3295898,0.0449219v0.4951172   c-0.1049805-0.0297852-0.2197266-0.0449219-0.3447266-0.0449219c-0.1850586,0.0048828-0.3374023,0.0498047-0.4575195,0.1347656   c-0.1201172,0.090332-0.2177734,0.2128906-0.2924805,0.3676758c-0.0703125,0.1499023-0.1201172,0.3125-0.1499023,0.4873047   c-0.0351562,0.1850586-0.0527344,0.3652344-0.0527344,0.5400391v1.8901367h-0.4726562V24.9989948z"/>
	<path stroke-width="0.25" stroke="black" d="M66.686882,27.3539753h-0.0151367c-0.1098633,0.2250977-0.2773438,0.3979492-0.5024414,0.5175781   c-0.2250977,0.1201172-0.4624023,0.1826172-0.7124023,0.1875c-0.2651367-0.0048828-0.4799805-0.0473633-0.6450195-0.1274414   c-0.1699219-0.074707-0.2998047-0.1699219-0.3901367-0.284668c-0.1601562-0.25-0.2348633-0.4726562-0.2250977-0.6679688   c0-0.3198242,0.0776367-0.5722656,0.2329102-0.7573242c0.1499023-0.1850586,0.3422852-0.3173828,0.5771484-0.3974609   c0.2348633-0.0849609,0.4902344-0.1401367,0.7651367-0.1650391c0.2700195-0.0151367,0.5297852-0.0224609,0.7797852-0.0224609   h0.090332v-0.1948242c0.0146484-0.6552734-0.2753906-0.9824219-0.8701172-0.9824219   c-0.3950195-0.0053711-0.7700195,0.0996094-1.125,0.3149414v-0.4575195c0.3549805-0.1650391,0.7299805-0.2524414,1.125-0.2626953   c0.9047852-0.0097656,1.3525391,0.4648438,1.3422852,1.4248047v1.6875   c-0.0048828,0.2900391,0.0078125,0.5576172,0.0375977,0.8027344H66.686882V27.3539753z M66.6419601,26.0414753h-0.1352539   c-0.2050781,0-0.409668,0.0053711-0.6147461,0.0151367c-0.215332,0.0200195-0.4101562,0.0625-0.5849609,0.1274414   c-0.175293,0.0600586-0.3149414,0.152832-0.4199219,0.277832c-0.1152344,0.125-0.1728516,0.2924805-0.1728516,0.5024414   c0,0.2451172,0.0800781,0.4199219,0.2402344,0.5249023c0.1499023,0.1098633,0.3349609,0.1650391,0.5546875,0.1650391   c0.2749023,0,0.4926758-0.0551758,0.652832-0.1650391c0.1547852-0.1049805,0.2670898-0.2299805,0.3374023-0.375   c0.0751953-0.1547852,0.1171875-0.3076172,0.1274414-0.4575195c0.0097656-0.1547852,0.0151367-0.2822266,0.0151367-0.3823242   V26.0414753z"/>
	<path stroke-width="0.25" stroke="black" d="M68.4720383,27.5717487l2.3022461-3.0224609H68.561882v-0.4052734h2.7597656v0.4052734l-2.3022461,3.0151367h2.3022461   v0.4047852h-2.8496094V27.5717487z"/>
	<path stroke-width="0.25" stroke="black" d="M73.2117844,23.1239948h-0.4726562V22.494112h0.4726562V23.1239948z M72.7391281,24.1440144h0.4726562v3.8251953   h-0.4726562V24.1440144z"/>
	<path stroke-width="0.25" stroke="black" d="M75.1317062,24.6615925c0.2900391-0.3950195,0.7402344-0.597168,1.3500977-0.6074219   c0.6201172,0.0102539,1.0751953,0.2124023,1.3652344,0.6074219c0.2797852,0.3852539,0.4199219,0.8500977,0.4199219,1.3950195   c0,0.5351562-0.1401367,0.9975586-0.4199219,1.3876953c-0.2900391,0.3999023-0.7451172,0.6049805-1.3652344,0.6147461   c-0.6098633-0.0097656-1.0600586-0.2148438-1.3500977-0.6147461c-0.2900391-0.3901367-0.4350586-0.8525391-0.4350586-1.3876953   C74.6966476,25.5116901,74.8416672,25.0468464,75.1317062,24.6615925z M75.5443039,27.181612   c0.2099609,0.3100586,0.5224609,0.4677734,0.9375,0.4726562c0.4150391-0.0048828,0.7324219-0.1625977,0.9526367-0.4726562   c0.2099609-0.2949219,0.3149414-0.6699219,0.3149414-1.125c0-0.4545898-0.1049805-0.8349609-0.3149414-1.1401367   c-0.2202148-0.2998047-0.5375977-0.4521484-0.9526367-0.4570312c-0.4150391,0.0048828-0.7275391,0.1572266-0.9375,0.4570312   c-0.2202148,0.3051758-0.3300781,0.6855469-0.3300781,1.1401367C75.2142258,26.5116901,75.3240891,26.8866901,75.5443039,27.181612   z"/>
	<path stroke-width="0.25" stroke="black" d="M79.7440109,25.044405c0-0.2949219-0.0097656-0.5952148-0.0297852-0.9003906h0.4575195v0.6826172h0.0151367   c0.0449219-0.0898438,0.097168-0.1796875,0.1572266-0.2700195c0.0600586-0.0898438,0.1352539-0.1723633,0.2250977-0.2475586   c0.0947266-0.0795898,0.2124023-0.1425781,0.3525391-0.1875s0.3076172-0.0673828,0.5024414-0.0673828   c0.4697266,0.0048828,0.8076172,0.1450195,1.0126953,0.4199219c0.1948242,0.2700195,0.2924805,0.6201172,0.2924805,1.050293   v2.4448242h-0.4726562v-2.3251953c0-0.3647461-0.0673828-0.6547852-0.2026367-0.8696289   c-0.1450195-0.2050781-0.3798828-0.3100586-0.7050781-0.3149414c-0.4199219,0.0097656-0.7148438,0.159668-0.8847656,0.449707   c-0.0898438,0.1352539-0.1523438,0.2827148-0.1875,0.4423828c-0.0400391,0.1650391-0.0600586,0.3325195-0.0600586,0.5024414   v2.1152344h-0.4726562V25.044405z"/>
	<path stroke-width="0.25" stroke="black" d="M87.0643234,27.8490925c-0.3603516,0.1352539-0.7304688,0.2050781-1.1103516,0.2099609   c-0.625-0.0097656-1.0722656-0.2021484-1.3422852-0.5771484c-0.2700195-0.3652344-0.402832-0.840332-0.3974609-1.425293   c0.0048828-0.5947266,0.1547852-1.0771484,0.449707-1.4472656c0.2851562-0.3652344,0.6723633-0.550293,1.1625977-0.5551758   c0.5351562,0.0102539,0.9248047,0.1977539,1.1699219,0.5625c0.2353516,0.3598633,0.3525391,0.8051758,0.3525391,1.3349609   v0.2402344h-2.6171875c0,0.4150391,0.1074219,0.7573242,0.3222656,1.0273438   c0.2099609,0.2851562,0.5224609,0.4301758,0.9375,0.4350586c0.1850586,0,0.3798828-0.0327148,0.5849609-0.0976562   c0.2050781-0.0546875,0.3676758-0.1171875,0.487793-0.1875V27.8490925z M86.8314133,25.7865925   c0-0.3496094-0.0722656-0.6547852-0.2172852-0.9150391c-0.1552734-0.2646484-0.4077148-0.4023438-0.7573242-0.4121094   c-0.3452148,0.0097656-0.6176758,0.1499023-0.8178711,0.4199219c-0.2050781,0.2700195-0.3071289,0.5722656-0.3071289,0.9072266   H86.8314133z"/>
	<path stroke-width="0.25" stroke="black" d="M92.5692062,27.6093464c0.3344727,0,0.6147461-0.0874023,0.8398438-0.2626953   c0.2197266-0.1748047,0.3325195-0.4448242,0.3374023-0.8100586c-0.0048828-0.2548828-0.1298828-0.4697266-0.375-0.6450195   c-0.1098633-0.0898438-0.2373047-0.1748047-0.3823242-0.2548828s-0.2924805-0.1601562-0.4428711-0.2397461   c-0.1499023-0.0849609-0.2949219-0.175293-0.4345703-0.2700195c-0.1455078-0.090332-0.2753906-0.1899414-0.3901367-0.300293   c-0.2451172-0.2148438-0.3701172-0.4873047-0.375-0.8173828c0.0048828-0.4248047,0.1674805-0.7597656,0.4873047-1.0048828   c0.3100586-0.2353516,0.7001953-0.3549805,1.1699219-0.3603516c0.1352539,0,0.2954102,0.0102539,0.4799805,0.0302734   c0.1850586,0.0297852,0.3676758,0.0776367,0.5478516,0.1425781l-0.0825195,0.472168   c-0.2548828-0.1298828-0.5727539-0.1948242-0.9526367-0.1948242c-0.1347656,0-0.2675781,0.0126953-0.3974609,0.0375977   c-0.1298828,0.0297852-0.2524414,0.0825195-0.3676758,0.1572266c-0.1049805,0.0654297-0.1923828,0.1552734-0.262207,0.2700195   c-0.0703125,0.1201172-0.1049805,0.2651367-0.1049805,0.4350586c0,0.125,0.034668,0.2402344,0.1049805,0.3452148   c0.0698242,0.1049805,0.159668,0.1972656,0.2700195,0.2773438c0.1147461,0.0849609,0.2446289,0.1650391,0.3896484,0.2402344   c0.1401367,0.0800781,0.2851562,0.1621094,0.4350586,0.2470703c0.3149414,0.1503906,0.5898438,0.340332,0.8251953,0.5703125   c0.1147461,0.1098633,0.2075195,0.2397461,0.2773438,0.3901367c0.0649414,0.1499023,0.0976562,0.3222656,0.0976562,0.5170898   c-0.0102539,0.5205078-0.1923828,0.8979492-0.5473633,1.1328125c-0.3500977,0.2299805-0.7402344,0.3447266-1.1704102,0.3447266   c-0.5097656-0.0097656-0.9047852-0.0849609-1.1845703-0.2246094l0.0522461-0.5327148   C91.7088547,27.5068073,92.0941086,27.6093464,92.5692062,27.6093464z"/>
	<path stroke-width="0.25" stroke="black" d="M97.1663742,27.9692097h-0.5546875l-1.2978516-3.8251953h0.5175781l1.0576172,3.3076172h0.0151367l1.1098633-3.3076172   h0.4951172L97.1663742,27.9692097z"/>
	<path stroke-width="0.25" stroke="black" d="M100.2264328,23.1239948h-0.4726562V22.494112h0.4726562V23.1239948z M99.7537766,24.1440144h0.4726562v3.8251953   h-0.4726562V24.1440144z"/>
	<path stroke-width="0.25" stroke="black" d="M101.6517258,27.5717487l2.3022461-3.0224609h-2.2124023v-0.4052734h2.7597656v0.4052734l-2.3022461,3.0151367h2.3022461   v0.4047852h-2.8496094V27.5717487z"/>
	<path stroke-width="0.25" stroke="black" d="M105.5672531,27.5717487l2.3022461-3.0224609h-2.2124023v-0.4052734h2.7597656v0.4052734l-2.3022461,3.0151367h2.3022461   v0.4047852h-2.8496094V27.5717487z"/>
	<path stroke-width="0.25" stroke="black" d="M112.3997726,27.8490925c-0.3603516,0.1352539-0.7304688,0.2050781-1.1103516,0.2099609   c-0.625-0.0097656-1.0722656-0.2021484-1.3422852-0.5771484c-0.2700195-0.3652344-0.402832-0.840332-0.3974609-1.425293   c0.0048828-0.5947266,0.1547852-1.0771484,0.449707-1.4472656c0.2851562-0.3652344,0.6723633-0.550293,1.1625977-0.5551758   c0.5351562,0.0102539,0.9248047,0.1977539,1.1699219,0.5625c0.2353516,0.3598633,0.3525391,0.8051758,0.3525391,1.3349609   v0.2402344h-2.6171875c0,0.4150391,0.1074219,0.7573242,0.3222656,1.0273438   c0.2099609,0.2851562,0.5224609,0.4301758,0.9375,0.4350586c0.1850586,0,0.3798828-0.0327148,0.5849609-0.0976562   c0.2050781-0.0546875,0.3676758-0.1171875,0.487793-0.1875V27.8490925z M112.1668625,25.7865925   c0-0.3496094-0.0722656-0.6547852-0.2172852-0.9150391c-0.1552734-0.2646484-0.4077148-0.4023438-0.7573242-0.4121094   c-0.3452148,0.0097656-0.6176758,0.1499023-0.8178711,0.4199219c-0.2050781,0.2700195-0.3071289,0.5722656-0.3071289,0.9072266   H112.1668625z"/>
	<path stroke-width="0.25" stroke="black" d="M114.1693039,24.9989948c0-0.3549805-0.0097656-0.6396484-0.0297852-0.8549805h0.4726562v0.7353516h0.0146484   c0.090332-0.2250977,0.2177734-0.4174805,0.3828125-0.5776367c0.159668-0.1601562,0.3598633-0.2426758,0.6000977-0.2475586   c0.1245117,0.0048828,0.2348633,0.0200195,0.3295898,0.0449219v0.4951172   c-0.1049805-0.0297852-0.2197266-0.0449219-0.3447266-0.0449219c-0.1850586,0.0048828-0.3374023,0.0498047-0.4575195,0.1347656   c-0.1201172,0.090332-0.2177734,0.2128906-0.2924805,0.3676758c-0.0703125,0.1499023-0.1201172,0.3125-0.1499023,0.4873047   c-0.0351562,0.1850586-0.0527344,0.3652344-0.0527344,0.5400391v1.8901367h-0.4726562V24.9989948z"/>
	<path stroke-width="0.25" stroke="black" d="M119.4495773,27.3539753h-0.0151367c-0.1098633,0.2250977-0.2773438,0.3979492-0.5024414,0.5175781   c-0.2250977,0.1201172-0.4624023,0.1826172-0.7124023,0.1875c-0.2651367-0.0048828-0.4799805-0.0473633-0.6450195-0.1274414   c-0.1699219-0.074707-0.2998047-0.1699219-0.3901367-0.284668c-0.1601562-0.25-0.2348633-0.4726562-0.2250977-0.6679688   c0-0.3198242,0.0776367-0.5722656,0.2329102-0.7573242c0.1499023-0.1850586,0.3422852-0.3173828,0.5771484-0.3974609   c0.2348633-0.0849609,0.4902344-0.1401367,0.7651367-0.1650391c0.2700195-0.0151367,0.5297852-0.0224609,0.7797852-0.0224609   h0.090332v-0.1948242c0.0146484-0.6552734-0.2753906-0.9824219-0.8701172-0.9824219   c-0.3950195-0.0053711-0.7700195,0.0996094-1.125,0.3149414v-0.4575195c0.3549805-0.1650391,0.7299805-0.2524414,1.125-0.2626953   c0.9047852-0.0097656,1.3525391,0.4648438,1.3422852,1.4248047v1.6875   c-0.0048828,0.2900391,0.0078125,0.5576172,0.0375977,0.8027344h-0.4648438V27.3539753z M119.4046555,26.0414753h-0.1352539   c-0.2050781,0-0.409668,0.0053711-0.6147461,0.0151367c-0.215332,0.0200195-0.4101562,0.0625-0.5849609,0.1274414   c-0.175293,0.0600586-0.3149414,0.152832-0.4199219,0.277832c-0.1152344,0.125-0.1728516,0.2924805-0.1728516,0.5024414   c0,0.2451172,0.0800781,0.4199219,0.2402344,0.5249023c0.1499023,0.1098633,0.3349609,0.1650391,0.5546875,0.1650391   c0.2749023,0,0.4926758-0.0551758,0.652832-0.1650391c0.1547852-0.1049805,0.2670898-0.2299805,0.3374023-0.375   c0.0751953-0.1547852,0.1171875-0.3076172,0.1274414-0.4575195c0.0097656-0.1547852,0.0151367-0.2822266,0.0151367-0.3823242   V26.0414753z"/>
	<path stroke-width="0.25" stroke="black" d="M32.8841476,33.4814148c-0.2148438-0.0249023-0.4174805-0.0375977-0.6074219-0.0375977   c-0.6796856,0.0102539-1.2026348,0.2226562-1.5673809,0.6376953c-0.3701172,0.4150391-0.5551758,0.9550781-0.5551758,1.6196289   c0,0.6704102,0.1826172,1.2104492,0.5478516,1.6201172c0.3598633,0.4199219,0.8847656,0.6328125,1.5747051,0.6376953   c0.1801758,0,0.3828125-0.0175781,0.6074219-0.0527344c0.2202148-0.0297852,0.4077148-0.0874023,0.5625-0.1723633   l0.0302734,0.4501953c-0.1552734,0.0795898-0.3476562,0.137207-0.5776367,0.1723633   c-0.2348633,0.034668-0.4423828,0.0522461-0.6225586,0.0522461c-0.8300762-0.0097656-1.4750957-0.2597656-1.9350567-0.75   c-0.4697266-0.4848633-0.7045898-1.137207-0.7045898-1.9575195c0.0048828-0.8100586,0.2421875-1.4624023,0.7124023-1.9575195   c0.4648438-0.4897461,1.1074219-0.7397461,1.9272442-0.75c0.1699219,0,0.3774414,0.0126953,0.6225586,0.0375977   c0.2402344,0.0302734,0.4326172,0.0825195,0.5776367,0.1577148l-0.0302734,0.4799805   C33.2767258,33.5785828,33.0892258,33.516571,32.8841476,33.4814148z"/>
	<path stroke-width="0.25" stroke="black" d="M35.5316086,35.0112c0.2900391-0.3950195,0.7402344-0.597168,1.3500977-0.6074219   c0.6201172,0.0102539,1.0751953,0.2124023,1.3652344,0.6074219c0.2797852,0.3852539,0.4199219,0.8500977,0.4199219,1.3950195   c0,0.5351562-0.1401367,0.9975586-0.4199219,1.3876953c-0.2900391,0.3999023-0.7451172,0.6049805-1.3652344,0.6147461   c-0.6098633-0.0097656-1.0600586-0.2148438-1.3500977-0.6147461c-0.2900391-0.3901367-0.4350586-0.8525391-0.4350586-1.3876953   C35.09655,35.8612976,35.2415695,35.3964539,35.5316086,35.0112z M35.9442062,37.5312195   c0.2099609,0.3100586,0.5224609,0.4677734,0.9375,0.4726562c0.4150391-0.0048828,0.7324219-0.1625977,0.9526367-0.4726562   c0.2099609-0.2949219,0.3149414-0.6699219,0.3149414-1.125c0-0.4545898-0.1049805-0.8349609-0.3149414-1.1401367   c-0.2202148-0.2998047-0.5375977-0.4521484-0.9526367-0.4570312c-0.4150391,0.0048828-0.7275391,0.1572266-0.9375,0.4570312   c-0.2202148,0.3051758-0.3300781,0.6855469-0.3300781,1.1401367   C35.6141281,36.8612976,35.7239914,37.2362976,35.9442062,37.5312195z"/>
	<path stroke-width="0.25" stroke="black" d="M40.1439133,35.3940125c0-0.2949219-0.0097656-0.5952148-0.0297852-0.9003906h0.4575195v0.6826172h0.0151367   c0.0449219-0.0898438,0.097168-0.1796875,0.1572266-0.2700195c0.0600586-0.0898438,0.1352539-0.1723633,0.2250977-0.2475586   c0.0947266-0.0795898,0.2124023-0.1425781,0.3525391-0.1875s0.3076172-0.0673828,0.5024414-0.0673828   c0.4697266,0.0048828,0.8076172,0.1450195,1.0126953,0.4199219c0.1948242,0.2700195,0.2924805,0.6201172,0.2924805,1.050293   v2.4448242h-0.4726562v-2.3251953c0-0.3647461-0.0673828-0.6547852-0.2026367-0.8696289   c-0.1450195-0.2050781-0.3798828-0.3100586-0.7050781-0.3149414c-0.4199219,0.0097656-0.7148438,0.159668-0.8847656,0.449707   c-0.0898438,0.1352539-0.1523438,0.2827148-0.1875,0.4423828c-0.0400391,0.1650391-0.0600586,0.3325195-0.0600586,0.5024414   v2.1152344h-0.4726562V35.3940125z"/>
	<path stroke-width="0.25" stroke="black" d="M45.22155,34.8988953h-0.7724609v-0.4052734H45.22155v-0.2773438c0-0.2050781,0.0097656-0.4047852,0.0297852-0.6000977   c0.0102539-0.1899414,0.0478516-0.3598633,0.112793-0.5097656c0.0649414-0.1547852,0.1674805-0.277832,0.3076172-0.3676758   c0.1347656-0.0898438,0.3222656-0.1347656,0.5625-0.1347656c0.0795898,0,0.1621094,0.0024414,0.2470703,0.0073242   c0.0849609,0.0151367,0.1503906,0.0375977,0.1953125,0.0673828l-0.0302734,0.4052734   c-0.1049805-0.050293-0.2299805-0.0751953-0.375-0.0751953c-0.1547852,0-0.2724609,0.0351562-0.3525391,0.1049805   c-0.0849609,0.0800781-0.1420898,0.1777344-0.1723633,0.2924805c-0.0297852,0.1152344-0.0449219,0.237793-0.0449219,0.3676758   c-0.0048828,0.1347656-0.0073242,0.2651367-0.0073242,0.3901367v0.3295898h0.8623047v0.4052734h-0.8623047v3.4199219H45.22155   V34.8988953z"/>
	<path stroke-width="0.25" stroke="black" d="M50.5467453,38.1987c-0.3603516,0.1352539-0.7304688,0.2050781-1.1103516,0.2099609   c-0.625-0.0097656-1.0722656-0.2021484-1.3422852-0.5771484c-0.2700195-0.3652344-0.402832-0.840332-0.3974609-1.425293   c0.0048828-0.5947266,0.1547852-1.0771484,0.449707-1.4472656c0.2851562-0.3652344,0.6723633-0.550293,1.1625977-0.5551758   c0.5351562,0.0102539,0.9248047,0.1977539,1.1699219,0.5625c0.2353516,0.3598633,0.3525391,0.8051758,0.3525391,1.3349609   v0.2402344h-2.6171875c0,0.4150391,0.1074219,0.7573242,0.3222656,1.0273438   c0.2099609,0.2851562,0.5224609,0.4301758,0.9375,0.4350586c0.1850586,0,0.3798828-0.0327148,0.5849609-0.0976562   c0.2050781-0.0546875,0.3676758-0.1171875,0.487793-0.1875V38.1987z M50.3138351,36.1362   c0-0.3496094-0.0722656-0.6547852-0.2172852-0.9150391c-0.1552734-0.2646484-0.4077148-0.4023438-0.7573242-0.4121094   c-0.3452148,0.0097656-0.6176758,0.1499023-0.8178711,0.4199219c-0.2050781,0.2700195-0.3071289,0.5722656-0.3071289,0.9072266   H50.3138351z"/>
	<path stroke-width="0.25" stroke="black" d="M55.34655,38.3188171h-0.4726562v-0.6074219H54.858757c-0.25,0.4697266-0.6474609,0.7021484-1.1923828,0.6972656   c-0.5249023-0.0097656-0.9174805-0.2021484-1.1772461-0.5771484c-0.2651367-0.375-0.3974609-0.8500977-0.3974609-1.425293   c-0.0053711-0.5947266,0.1171875-1.074707,0.3671875-1.4399414c0.25-0.3701172,0.652832-0.5576172,1.2075195-0.5625   c0.1899414,0,0.3549805,0.0273438,0.4951172,0.0825195c0.1450195,0.0551758,0.2651367,0.125,0.3598633,0.2099609   c0.1953125,0.175293,0.3076172,0.3227539,0.3374023,0.4423828h0.0151367v-2.4448242H55.34655V38.3188171z M52.6614914,36.9535828   c0.0400391,0.1904297,0.1000977,0.3652344,0.1801758,0.5253906c0.0898438,0.1499023,0.2070312,0.2724609,0.3525391,0.3671875   c0.1396484,0.1049805,0.3222656,0.1577148,0.5473633,0.1577148c0.2099609,0,0.3901367-0.0527344,0.5400391-0.1577148   c0.1396484-0.0947266,0.2548828-0.222168,0.3447266-0.3823242c0.1699219-0.3398438,0.2524414-0.6923828,0.2475586-1.0576172   c0-0.1796875-0.0175781-0.3647461-0.0522461-0.5546875c-0.0400391-0.1801758-0.1049805-0.3500977-0.1953125-0.5102539   c-0.0898438-0.1601562-0.2050781-0.2900391-0.3447266-0.3901367c-0.1499023-0.0947266-0.3300781-0.1420898-0.5400391-0.1420898   c-0.2250977,0-0.4077148,0.0473633-0.5473633,0.1420898c-0.1455078,0.090332-0.2626953,0.215332-0.3525391,0.375   c-0.0800781,0.1503906-0.1401367,0.3203125-0.1801758,0.5102539c-0.0351562,0.1899414-0.0527344,0.3798828-0.0527344,0.5698242   C52.608757,36.5863953,52.6263351,36.7690125,52.6614914,36.9535828z"/>
	<path stroke-width="0.25" stroke="black" d="M59.6365891,38.1987c-0.3603516,0.1352539-0.7304688,0.2050781-1.1103516,0.2099609   c-0.625-0.0097656-1.0722656-0.2021484-1.3422852-0.5771484c-0.2700195-0.3652344-0.402832-0.840332-0.3974609-1.425293   c0.0048828-0.5947266,0.1547852-1.0771484,0.449707-1.4472656c0.2851562-0.3652344,0.6723633-0.550293,1.1625977-0.5551758   c0.5351562,0.0102539,0.9248047,0.1977539,1.1699219,0.5625c0.2353516,0.3598633,0.3525391,0.8051758,0.3525391,1.3349609   v0.2402344h-2.6171875c0,0.4150391,0.1074219,0.7573242,0.3222656,1.0273438   c0.2099609,0.2851562,0.5224609,0.4301758,0.9375,0.4350586c0.1850586,0,0.3798828-0.0327148,0.5849609-0.0976562   c0.2050781-0.0546875,0.3676758-0.1171875,0.487793-0.1875V38.1987z M59.4036789,36.1362   c0-0.3496094-0.0722656-0.6547852-0.2172852-0.9150391c-0.1552734-0.2646484-0.4077148-0.4023438-0.7573242-0.4121094   c-0.3452148,0.0097656-0.6176758,0.1499023-0.8178711,0.4199219c-0.2050781,0.2700195-0.3071289,0.5722656-0.3071289,0.9072266   H59.4036789z"/>
	<path stroke-width="0.25" stroke="black" d="M61.4066086,35.3486023c0-0.3549805-0.0097656-0.6396484-0.0297852-0.8549805h0.4726562v0.7353516h0.0146484   c0.090332-0.2250977,0.2177734-0.4174805,0.3828125-0.5776367c0.159668-0.1601562,0.3598633-0.2426758,0.6000977-0.2475586   c0.1245117,0.0048828,0.2348633,0.0200195,0.3295898,0.0449219v0.4951172   c-0.1049805-0.0297852-0.2197266-0.0449219-0.3447266-0.0449219c-0.1850586,0.0048828-0.3374023,0.0498047-0.4575195,0.1347656   c-0.1201172,0.090332-0.2177734,0.2128906-0.2924805,0.3676758c-0.0703125,0.1499023-0.1201172,0.3125-0.1499023,0.4873047   c-0.0351562,0.1850586-0.0527344,0.3652344-0.0527344,0.5400391v1.8901367h-0.4726562V35.3486023z"/>
	<path stroke-width="0.25" stroke="black" d="M66.686882,37.7035828h-0.0151367c-0.1098633,0.2250977-0.2773438,0.3979492-0.5024414,0.5175781   c-0.2250977,0.1201172-0.4624023,0.1826172-0.7124023,0.1875c-0.2651367-0.0048828-0.4799805-0.0473633-0.6450195-0.1274414   c-0.1699219-0.074707-0.2998047-0.1699219-0.3901367-0.284668c-0.1601562-0.25-0.2348633-0.4726562-0.2250977-0.6679688   c0-0.3198242,0.0776367-0.5722656,0.2329102-0.7573242c0.1499023-0.1850586,0.3422852-0.3173828,0.5771484-0.3974609   c0.2348633-0.0849609,0.4902344-0.1401367,0.7651367-0.1650391c0.2700195-0.0151367,0.5297852-0.0224609,0.7797852-0.0224609   h0.090332v-0.1948242c0.0146484-0.6552734-0.2753906-0.9824219-0.8701172-0.9824219   c-0.3950195-0.0053711-0.7700195,0.0996094-1.125,0.3149414v-0.4575195c0.3549805-0.1650391,0.7299805-0.2524414,1.125-0.2626953   c0.9047852-0.0097656,1.3525391,0.4648438,1.3422852,1.4248047v1.6875   c-0.0048828,0.2900391,0.0078125,0.5576172,0.0375977,0.8027344H66.686882V37.7035828z M66.6419601,36.3910828h-0.1352539   c-0.2050781,0-0.409668,0.0053711-0.6147461,0.0151367c-0.215332,0.0200195-0.4101562,0.0625-0.5849609,0.1274414   c-0.175293,0.0600586-0.3149414,0.152832-0.4199219,0.277832c-0.1152344,0.125-0.1728516,0.2924805-0.1728516,0.5024414   c0,0.2451172,0.0800781,0.4199219,0.2402344,0.5249023c0.1499023,0.1098633,0.3349609,0.1650391,0.5546875,0.1650391   c0.2749023,0,0.4926758-0.0551758,0.652832-0.1650391c0.1547852-0.1049805,0.2670898-0.2299805,0.3374023-0.375   c0.0751953-0.1547852,0.1171875-0.3076172,0.1274414-0.4575195c0.0097656-0.1547852,0.0151367-0.2822266,0.0151367-0.3823242   V36.3910828z"/>
	<path stroke-width="0.25" stroke="black" d="M68.4720383,37.9213562l2.3022461-3.0224609H68.561882v-0.4052734h2.7597656v0.4052734l-2.3022461,3.0151367h2.3022461   v0.4047852h-2.8496094V37.9213562z"/>
	<path stroke-width="0.25" stroke="black" d="M73.2117844,33.4736023h-0.4726562v-0.6298828h0.4726562V33.4736023z M72.7391281,34.4936218h0.4726562v3.8251953   h-0.4726562V34.4936218z"/>
	<path stroke-width="0.25" stroke="black" d="M77.9744797,37.4189148c-0.0053711,0.2900391,0.0048828,0.5898438,0.0297852,0.8999023h-0.4575195V37.6362h-0.0151367   c-0.034668,0.0849609-0.0820312,0.1699219-0.1420898,0.2548828c-0.0600586,0.090332-0.1376953,0.175293-0.2329102,0.2553711   c-0.0947266,0.074707-0.2124023,0.1347656-0.3520508,0.1796875c-0.1401367,0.0551758-0.3100586,0.0825195-0.5102539,0.0825195   c-0.4648438-0.0048828-0.7998047-0.1450195-1.0048828-0.4199219c-0.2050781-0.2700195-0.3051758-0.6196289-0.300293-1.0498047   v-2.4453125h0.4726562v2.3251953c0,0.3652344,0.0722656,0.6499023,0.2177734,0.8549805   c0.1396484,0.2202148,0.3696289,0.3300781,0.6899414,0.3300781c0.2148438,0,0.3974609-0.0449219,0.5473633-0.1352539   c0.1499023-0.0849609,0.2651367-0.1948242,0.3452148-0.3295898c0.0898438-0.1401367,0.1523438-0.2900391,0.1875-0.4501953   c0.034668-0.1601562,0.0522461-0.3198242,0.0522461-0.4799805v-2.1152344h0.4726562V37.4189148z"/>
	<path stroke-width="0.25" stroke="black" d="M79.7440109,35.3940125c0-0.2949219-0.0097656-0.5952148-0.0297852-0.9003906h0.4575195v0.6826172h0.0151367   c0.0449219-0.0898438,0.097168-0.1796875,0.1572266-0.2700195c0.0600586-0.0898438,0.1352539-0.1723633,0.2250977-0.2475586   c0.0947266-0.0795898,0.2124023-0.1425781,0.3525391-0.1875s0.3076172-0.0673828,0.5024414-0.0673828   c0.4697266,0.0048828,0.8076172,0.1450195,1.0126953,0.4199219c0.1948242,0.2700195,0.2924805,0.6201172,0.2924805,1.050293   v2.4448242h-0.4726562v-2.3251953c0-0.3647461-0.0673828-0.6547852-0.2026367-0.8696289   c-0.1450195-0.2050781-0.3798828-0.3100586-0.7050781-0.3149414c-0.4199219,0.0097656-0.7148438,0.159668-0.8847656,0.449707   c-0.0898438,0.1352539-0.1523438,0.2827148-0.1875,0.4423828c-0.0400391,0.1650391-0.0600586,0.3325195-0.0600586,0.5024414   v2.1152344h-0.4726562V35.3940125z"/>
	<path stroke-width="0.25" stroke="black" d="M87.8738937,38.0038757c0.2348633,0,0.4350586-0.0625,0.6000977-0.1875   c0.1601562-0.1152344,0.2426758-0.2797852,0.2475586-0.4951172c-0.0048828-0.2250977-0.0976562-0.4023438-0.2773438-0.5322266   c-0.1801758-0.125-0.3925781-0.237793-0.6376953-0.3378906c-0.1152344-0.0546875-0.2250977-0.1123047-0.3300781-0.1723633   s-0.2050781-0.1274414-0.2998047-0.2026367c-0.0849609-0.0795898-0.1552734-0.1723633-0.2099609-0.2773438   c-0.0551758-0.1000977-0.0825195-0.2172852-0.0825195-0.3525391c0.0048828-0.3798828,0.1347656-0.6499023,0.3896484-0.8100586   c0.2451172-0.1547852,0.5302734-0.2324219,0.8554688-0.2324219c0.1098633,0,0.2519531,0.0102539,0.4272461,0.0302734   c0.1748047,0.0297852,0.3476562,0.0771484,0.5175781,0.1420898l-0.0449219,0.4125977   c-0.2753906-0.1147461-0.5576172-0.1748047-0.8476562-0.1796875c-0.2451172,0-0.4399414,0.0449219-0.5849609,0.1347656   c-0.0751953,0.0449219-0.1323242,0.1074219-0.1723633,0.1875c-0.0449219,0.0800781-0.0678711,0.1850586-0.0678711,0.3149414   c0,0.0800781,0.027832,0.1552734,0.0825195,0.2250977c0.0551758,0.0649414,0.1279297,0.125,0.2177734,0.1801758   c0.0898438,0.0498047,0.1923828,0.1025391,0.3076172,0.1572266c0.1147461,0.050293,0.2270508,0.1049805,0.3374023,0.1650391   c0.25,0.1049805,0.4672852,0.2451172,0.6523438,0.4199219c0.1850586,0.175293,0.2797852,0.4174805,0.2851562,0.7275391   c0,0.2001953-0.0400391,0.3676758-0.1201172,0.5024414c-0.0849609,0.1401367-0.1923828,0.2524414-0.3222656,0.3374023   c-0.2802734,0.1650391-0.5776367,0.2475586-0.8925781,0.2475586c-0.3701172,0-0.7275391-0.0600586-1.0727539-0.1796875   l0.0449219-0.465332C87.1663742,37.9189148,87.4988937,37.9989929,87.8738937,38.0038757z"/>
	<path stroke-width="0.25" stroke="black" d="M91.9988937,38.3188171h-0.5546875l-1.2978516-3.8251953h0.5175781L91.72155,37.801239h0.0151367l1.1098633-3.3076172   h0.4951172L91.9988937,38.3188171z"/>
	<path stroke-width="0.25" stroke="black" d="M95.0589523,33.4736023h-0.4726562v-0.6298828h0.4726562V33.4736023z M94.5862961,34.4936218h0.4726562v3.8251953   h-0.4726562V34.4936218z"/>
	<path stroke-width="0.25" stroke="black" d="M96.4842453,37.9213562l2.3022461-3.0224609h-2.2124023v-0.4052734h2.7597656v0.4052734l-2.3022461,3.0151367h2.3022461   v0.4047852h-2.8496094V37.9213562z"/>
	<path stroke-width="0.25" stroke="black" d="M100.7513351,35.3486023c0-0.3549805-0.0097656-0.6396484-0.0297852-0.8549805h0.4726562v0.7353516h0.0146484   c0.090332-0.2250977,0.2177734-0.4174805,0.3828125-0.5776367c0.159668-0.1601562,0.3598633-0.2426758,0.6000977-0.2475586   c0.1245117,0.0048828,0.2348633,0.0200195,0.3295898,0.0449219v0.4951172   c-0.1049805-0.0297852-0.2197266-0.0449219-0.3447266-0.0449219c-0.1850586,0.0048828-0.3374023,0.0498047-0.4575195,0.1347656   c-0.1201172,0.090332-0.2177734,0.2128906-0.2924805,0.3676758c-0.0703125,0.1499023-0.1201172,0.3125-0.1499023,0.4873047   c-0.0351562,0.1850586-0.0527344,0.3652344-0.0527344,0.5400391v1.8901367h-0.4726562V35.3486023z"/>
	<path stroke-width="0.25" stroke="black" d="M106.0320969,37.7035828h-0.0151367c-0.1098633,0.2250977-0.2773438,0.3979492-0.5024414,0.5175781   c-0.2250977,0.1201172-0.4624023,0.1826172-0.7124023,0.1875c-0.2651367-0.0048828-0.4799805-0.0473633-0.6450195-0.1274414   c-0.1699219-0.074707-0.2998047-0.1699219-0.3901367-0.284668c-0.1601562-0.25-0.2348633-0.4726562-0.2250977-0.6679688   c0-0.3198242,0.0776367-0.5722656,0.2329102-0.7573242c0.1499023-0.1850586,0.3422852-0.3173828,0.5771484-0.3974609   c0.2348633-0.0849609,0.4902344-0.1401367,0.7651367-0.1650391c0.2700195-0.0151367,0.5297852-0.0224609,0.7797852-0.0224609   h0.090332v-0.1948242c0.0146484-0.6552734-0.2753906-0.9824219-0.8701172-0.9824219   c-0.3950195-0.0053711-0.7700195,0.0996094-1.125,0.3149414v-0.4575195c0.3549805-0.1650391,0.7299805-0.2524414,1.125-0.2626953   c0.9047852-0.0097656,1.3525391,0.4648438,1.3422852,1.4248047v1.6875   c-0.0048828,0.2900391,0.0078125,0.5576172,0.0375977,0.8027344h-0.4648438V37.7035828z M105.987175,36.3910828h-0.1352539   c-0.2050781,0-0.409668,0.0053711-0.6147461,0.0151367c-0.215332,0.0200195-0.4101562,0.0625-0.5849609,0.1274414   c-0.175293,0.0600586-0.3149414,0.152832-0.4199219,0.277832c-0.1152344,0.125-0.1728516,0.2924805-0.1728516,0.5024414   c0,0.2451172,0.0800781,0.4199219,0.2402344,0.5249023c0.1499023,0.1098633,0.3349609,0.1650391,0.5546875,0.1650391   c0.2749023,0,0.4926758-0.0551758,0.652832-0.1650391c0.1547852-0.1049805,0.2670898-0.2299805,0.3374023-0.375   c0.0751953-0.1547852,0.1171875-0.3076172,0.1274414-0.4575195c0.0097656-0.1547852,0.0151367-0.2822266,0.0151367-0.3823242   V36.3910828z"/>
</g>
<g>
	<path stroke-width="0.25" stroke="black" fill="#FF0000" d="M21.2659359,1.7383165c0,0-3.9686985-1.7383165-10.6131992-1.7383165h-0.0019999   C4.006237,0,0.0365371,1.7383165,0.0365371,1.7383165s-0.3555,7.6962996,1.1513001,12.0478001   c2.6611998,7.6513987,9.4618988,9.8007994,9.4618988,9.8007994h0.0020008h0.0018997c0,0,6.799799-2.1494007,9.4619999-9.8007994   C21.6224365,9.4346161,21.2659359,1.7383165,21.2659359,1.7383165z"/>
</g>
<polygon fill="#FFFFFF" points="17.7054367,8.3730001 17.7054367,12.6133165 12.7581406,12.6133165 12.7581406,17.5605164  8.5179367,17.5605164 8.5179367,12.6133165 3.570637,12.6133165 3.570637,8.3730001 8.5179367,8.3730001 8.5179367,3.4267166   12.7572365,3.4267166 12.7581406,8.3730001 "/>
<g>
</g>
<g>
</g>
<g>
</g>
<g>
</g>
<g>
</g>
<g>
</g>
<g>
</g>
<g>
</g>
<g>
</g>
<g>
</g>
<g>
</g>
<g>
</g>
<g>
</g>
</svg>